<?xml version="1.0" encoding="utf-8" standalone="no"?>
<!DOCTYPE svg PUBLIC "-//W3C//DTD SVG 1.1//EN"
  "http://www.w3.org/Graphics/SVG/1.1/DTD/svg11.dtd">
<svg xmlns:xlink="http://www.w3.org/1999/xlink" width="432pt" height="288pt" viewBox="0 0 432 288" xmlns="http://www.w3.org/2000/svg" version="1.1">
 <metadata>
  <rdf:RDF xmlns:dc="http://purl.org/dc/elements/1.1/" xmlns:cc="http://creativecommons.org/ns#" xmlns:rdf="http://www.w3.org/1999/02/22-rdf-syntax-ns#">
   <cc:Work>
    <dc:type rdf:resource="http://purl.org/dc/dcmitype/StillImage"/>
    <dc:date>2022-02-07T13:01:34.420450</dc:date>
    <dc:format>image/svg+xml</dc:format>
    <dc:creator>
     <cc:Agent>
      <dc:title>Matplotlib v3.5.1, https://matplotlib.org/</dc:title>
     </cc:Agent>
    </dc:creator>
   </cc:Work>
  </rdf:RDF>
 </metadata>
 <defs>
  <style type="text/css">*{stroke-linejoin: round; stroke-linecap: butt}</style>
 </defs>
 <g id="figure_1">
  <g id="patch_1">
   <path d="M 0 288 
L 432 288 
L 432 0 
L 0 0 
L 0 288 
z
" style="fill: none"/>
  </g>
  <g id="axes_1">
   <g id="patch_2">
    <path d="M 112.68 252 
L 330.12 252 
L 330.12 34.56 
L 112.68 34.56 
z
" style="fill: #ffffff"/>
   </g>
   <g id="PolyCollection_1">
    <defs>
     <path id="m03caab92e8" d="M 122.563636 -46.678119 
L 122.563636 -45.883636 
L 124.560331 -75.197235 
L 126.557025 -84.660048 
L 128.553719 -96.132025 
L 130.550413 -119.050812 
L 132.547107 -122.70488 
L 134.543802 -122.953147 
L 136.540496 -128.564263 
L 138.53719 -128.564263 
L 140.533884 -130.42564 
L 142.530579 -139.305667 
L 144.527273 -139.305667 
L 146.523967 -139.305667 
L 148.520661 -144.171848 
L 150.517355 -152.348555 
L 152.51405 -170.332748 
L 154.510744 -170.332748 
L 156.507438 -170.647309 
L 158.504132 -177.45859 
L 160.500826 -177.387173 
L 162.497521 -182.338975 
L 164.494215 -182.338975 
L 166.490909 -182.338975 
L 168.487603 -182.338975 
L 170.484298 -182.338975 
L 172.480992 -188.633888 
L 174.477686 -188.633888 
L 176.47438 -194.979939 
L 178.471074 -202.336596 
L 180.467769 -202.336596 
L 182.464463 -202.336596 
L 184.461157 -202.336596 
L 186.457851 -211.655492 
L 188.454545 -213.894914 
L 190.45124 -213.894914 
L 192.447934 -213.894914 
L 194.444628 -213.894914 
L 196.441322 -213.894914 
L 198.438017 -213.894914 
L 200.434711 -213.894914 
L 202.431405 -213.894914 
L 204.428099 -213.894914 
L 206.424793 -213.894914 
L 208.421488 -213.894914 
L 210.418182 -213.894914 
L 212.414876 -213.894914 
L 214.41157 -213.894914 
L 216.408264 -218.62424 
L 218.404959 -220.255524 
L 220.401653 -220.255524 
L 222.398347 -220.255524 
L 224.395041 -220.255524 
L 226.391736 -220.255524 
L 228.38843 -228.688617 
L 230.385124 -228.688617 
L 232.381818 -228.688617 
L 234.378512 -228.688617 
L 236.375207 -228.688617 
L 238.371901 -228.688617 
L 240.368595 -228.688617 
L 242.365289 -228.688617 
L 244.361983 -228.688617 
L 246.358678 -228.688617 
L 248.355372 -228.688617 
L 250.352066 -228.688617 
L 252.34876 -228.688617 
L 254.345455 -228.688617 
L 256.342149 -228.688617 
L 258.338843 -228.688617 
L 260.335537 -228.688617 
L 262.332231 -228.688617 
L 264.328926 -228.688617 
L 266.32562 -228.688617 
L 268.322314 -228.688617 
L 270.319008 -228.688617 
L 272.315702 -228.688617 
L 274.312397 -228.688617 
L 276.309091 -228.688617 
L 278.305785 -228.688617 
L 280.302479 -228.688617 
L 282.299174 -243.556364 
L 284.295868 -243.556364 
L 286.292562 -243.556364 
L 288.289256 -243.556364 
L 290.28595 -243.556364 
L 292.282645 -243.556364 
L 294.279339 -243.556364 
L 296.276033 -243.556364 
L 298.272727 -243.556364 
L 300.269421 -243.556364 
L 302.266116 -243.556364 
L 304.26281 -243.556364 
L 306.259504 -243.556364 
L 308.256198 -243.556364 
L 310.252893 -243.556364 
L 312.249587 -243.556364 
L 314.246281 -243.556364 
L 316.242975 -243.556364 
L 318.239669 -243.556364 
L 320.236364 -243.556364 
L 320.236364 -243.556364 
L 320.236364 -243.556364 
L 318.239669 -243.556364 
L 316.242975 -243.556364 
L 314.246281 -243.556364 
L 312.249587 -243.556364 
L 310.252893 -243.556364 
L 308.256198 -243.556364 
L 306.259504 -243.556364 
L 304.26281 -243.556364 
L 302.266116 -243.556364 
L 300.269421 -243.556364 
L 298.272727 -243.556364 
L 296.276033 -243.556364 
L 294.279339 -243.556364 
L 292.282645 -243.556364 
L 290.28595 -243.556364 
L 288.289256 -243.556364 
L 286.292562 -243.556364 
L 284.295868 -243.556364 
L 282.299174 -243.556364 
L 280.302479 -243.556364 
L 278.305785 -243.556364 
L 276.309091 -243.556364 
L 274.312397 -243.556364 
L 272.315702 -243.556364 
L 270.319008 -243.556364 
L 268.322314 -243.556364 
L 266.32562 -243.556364 
L 264.328926 -243.556364 
L 262.332231 -243.556364 
L 260.335537 -243.556364 
L 258.338843 -243.556364 
L 256.342149 -243.556364 
L 254.345455 -243.556364 
L 252.34876 -243.556364 
L 250.352066 -243.556364 
L 248.355372 -243.556364 
L 246.358678 -243.556364 
L 244.361983 -243.556364 
L 242.365289 -243.556364 
L 240.368595 -243.556364 
L 238.371901 -243.556364 
L 236.375207 -243.556364 
L 234.378512 -243.556364 
L 232.381818 -243.556364 
L 230.385124 -243.556364 
L 228.38843 -243.556364 
L 226.391736 -243.556364 
L 224.395041 -243.556364 
L 222.398347 -243.556364 
L 220.401653 -243.556364 
L 218.404959 -243.556364 
L 216.408264 -243.556364 
L 214.41157 -243.556364 
L 212.414876 -243.556364 
L 210.418182 -243.556364 
L 208.421488 -243.556364 
L 206.424793 -243.556364 
L 204.428099 -243.556364 
L 202.431405 -243.556364 
L 200.434711 -243.556364 
L 198.438017 -243.556364 
L 196.441322 -243.556364 
L 194.444628 -243.556364 
L 192.447934 -243.556364 
L 190.45124 -243.556364 
L 188.454545 -243.556364 
L 186.457851 -242.106135 
L 184.461157 -237.832771 
L 182.464463 -237.832771 
L 180.467769 -237.832771 
L 178.471074 -237.832771 
L 176.47438 -235.730647 
L 174.477686 -233.840678 
L 172.480992 -233.840678 
L 170.484298 -230.133685 
L 168.487603 -230.133685 
L 166.490909 -230.133685 
L 164.494215 -230.133685 
L 162.497521 -230.133685 
L 160.500826 -227.397448 
L 158.504132 -226.066901 
L 156.507438 -224.537084 
L 154.510744 -223.377785 
L 152.51405 -223.377785 
L 150.517355 -208.719487 
L 148.520661 -202.681596 
L 146.523967 -199.170663 
L 144.527273 -199.170663 
L 142.530579 -199.170663 
L 140.533884 -194.026323 
L 138.53719 -190.820936 
L 136.540496 -190.820936 
L 134.543802 -186.538269 
L 132.547107 -185.629788 
L 130.550413 -181.549307 
L 128.553719 -159.609936 
L 126.557025 -150.158925 
L 124.560331 -140.359997 
L 122.563636 -46.678119 
z
" style="stroke: #a1c9f4; stroke-opacity: 0.2"/>
    </defs>
    <g clip-path="url(#p57614e0938)">
     <use xlink:href="#m03caab92e8" x="0" y="288" style="fill: #a1c9f4; fill-opacity: 0.2; stroke: #a1c9f4; stroke-opacity: 0.2"/>
    </g>
   </g>
   <g id="PolyCollection_2">
    <defs>
     <path id="m89908f612d" d="M 122.563636 -45.883636 
L 122.563636 -45.883636 
L 124.560331 -45.883636 
L 126.557025 -47.735167 
L 128.553719 -57.245163 
L 130.550413 -60.985061 
L 132.547107 -68.87833 
L 134.543802 -68.87833 
L 136.540496 -76.527604 
L 138.53719 -80.928228 
L 140.533884 -87.893264 
L 142.530579 -87.893264 
L 144.527273 -90.849643 
L 146.523967 -100.750455 
L 148.520661 -103.101721 
L 150.517355 -104.560089 
L 152.51405 -104.560089 
L 154.510744 -107.000067 
L 156.507438 -111.117848 
L 158.504132 -112.814473 
L 160.500826 -114.417304 
L 162.497521 -115.921682 
L 164.494215 -117.323752 
L 166.490909 -118.620652 
L 168.487603 -119.637893 
L 170.484298 -123.469234 
L 172.480992 -129.033065 
L 174.477686 -129.21796 
L 176.47438 -129.21796 
L 178.471074 -129.21796 
L 180.467769 -130.160309 
L 182.464463 -132.423263 
L 184.461157 -134.464142 
L 186.457851 -136.278909 
L 188.454545 -137.290077 
L 190.45124 -138.249941 
L 192.447934 -147.433132 
L 194.444628 -151.116565 
L 196.441322 -154.772414 
L 198.438017 -159.138097 
L 200.434711 -160.925957 
L 202.431405 -160.925957 
L 204.428099 -161.16661 
L 206.424793 -162.210176 
L 208.421488 -163.205525 
L 210.418182 -164.148079 
L 212.414876 -165.036851 
L 214.41157 -165.871191 
L 216.408264 -166.650809 
L 218.404959 -167.375779 
L 220.401653 -168.046543 
L 222.398347 -171.620944 
L 224.395041 -172.0267 
L 226.391736 -173.810085 
L 228.38843 -175.178299 
L 230.385124 -177.61538 
L 232.381818 -180.850666 
L 234.378512 -183.677338 
L 236.375207 -186.100525 
L 238.371901 -188.613851 
L 240.368595 -191.034779 
L 242.365289 -193.358302 
L 244.361983 -195.572409 
L 246.358678 -197.665313 
L 248.355372 -199.626302 
L 250.352066 -201.446712 
L 252.34876 -203.120865 
L 254.345455 -204.471101 
L 256.342149 -204.479225 
L 258.338843 -204.479225 
L 260.335537 -205.05381 
L 262.332231 -207.449045 
L 264.328926 -209.155514 
L 266.32562 -209.314462 
L 268.322314 -209.314462 
L 270.319008 -209.314462 
L 272.315702 -209.314462 
L 274.312397 -209.351994 
L 276.309091 -219.849389 
L 278.305785 -220.679994 
L 280.302479 -221.591501 
L 282.299174 -222.400074 
L 284.295868 -223.099384 
L 286.292562 -223.685838 
L 288.289256 -224.159068 
L 290.28595 -224.866157 
L 292.282645 -226.257961 
L 294.279339 -227.649764 
L 296.276033 -229.041565 
L 298.272727 -230.433366 
L 300.269421 -231.825164 
L 302.266116 -233.21696 
L 304.26281 -234.608753 
L 306.259504 -236.00054 
L 308.256198 -237.392317 
L 310.252893 -238.784076 
L 312.249587 -240.175795 
L 314.246281 -241.567391 
L 316.242975 -242.958005 
L 318.239669 -243.556364 
L 320.236364 -243.556364 
L 320.236364 -243.556364 
L 320.236364 -243.556364 
L 318.239669 -243.556364 
L 316.242975 -243.556364 
L 314.246281 -243.556364 
L 312.249587 -243.556364 
L 310.252893 -243.556364 
L 308.256198 -243.556364 
L 306.259504 -243.556364 
L 304.26281 -243.556364 
L 302.266116 -243.556364 
L 300.269421 -243.556364 
L 298.272727 -243.556364 
L 296.276033 -243.556364 
L 294.279339 -243.556364 
L 292.282645 -243.556364 
L 290.28595 -243.556364 
L 288.289256 -243.556364 
L 286.292562 -243.556364 
L 284.295868 -243.556364 
L 282.299174 -243.556364 
L 280.302479 -243.556364 
L 278.305785 -243.556364 
L 276.309091 -243.556364 
L 274.312397 -240.661406 
L 272.315702 -240.614492 
L 270.319008 -240.614492 
L 268.322314 -240.614492 
L 266.32562 -240.614492 
L 264.328926 -240.528285 
L 262.332231 -238.80055 
L 260.335537 -237.669773 
L 258.338843 -237.433656 
L 256.342149 -237.433656 
L 254.345455 -237.429031 
L 252.34876 -236.11056 
L 250.352066 -234.588067 
L 248.355372 -233.211833 
L 246.358678 -231.976177 
L 244.361983 -230.872436 
L 242.365289 -229.889897 
L 240.368595 -229.016775 
L 238.371901 -228.241059 
L 236.375207 -227.540949 
L 234.378512 -226.199877 
L 232.381818 -225.165535 
L 230.385124 -224.539806 
L 228.38843 -224.191034 
L 226.391736 -222.75355 
L 224.395041 -221.547906 
L 222.398347 -221.309156 
L 220.401653 -217.058095 
L 218.404959 -216.147073 
L 216.408264 -215.290258 
L 214.41157 -214.48809 
L 212.414876 -213.740645 
L 210.418182 -213.047631 
L 208.421488 -212.4084 
L 206.424793 -211.821963 
L 204.428099 -211.286122 
L 202.431405 -211.198812 
L 200.434711 -211.198812 
L 198.438017 -208.984717 
L 196.441322 -204.729692 
L 194.444628 -202.360976 
L 192.447934 -198.763839 
L 190.45124 -193.300256 
L 188.454545 -192.938572 
L 186.457851 -191.710706 
L 184.461157 -189.741313 
L 182.464463 -187.998034 
L 180.467769 -186.477117 
L 178.471074 -185.978284 
L 176.47438 -185.978284 
L 174.477686 -185.978284 
L 172.480992 -185.976684 
L 170.484298 -178.061975 
L 168.487603 -173.359268 
L 166.490909 -172.387046 
L 164.494215 -171.38107 
L 162.497521 -170.480266 
L 160.500826 -169.681769 
L 158.504132 -168.981725 
L 156.507438 -168.375475 
L 154.510744 -162.23841 
L 152.51405 -160.201099 
L 150.517355 -160.201099 
L 148.520661 -158.137118 
L 146.523967 -156.522436 
L 144.527273 -145.26183 
L 142.530579 -141.066764 
L 140.533884 -141.066764 
L 138.53719 -133.834033 
L 136.540496 -127.368867 
L 134.543802 -115.572173 
L 132.547107 -115.572173 
L 130.550413 -101.807588 
L 128.553719 -95.467805 
L 126.557025 -80.41045 
L 124.560331 -67.615321 
L 122.563636 -45.883636 
z
" style="stroke: #ffb482; stroke-opacity: 0.2"/>
    </defs>
    <g clip-path="url(#p57614e0938)">
     <use xlink:href="#m89908f612d" x="0" y="288" style="fill: #ffb482; fill-opacity: 0.2; stroke: #ffb482; stroke-opacity: 0.2"/>
    </g>
   </g>
   <g id="PolyCollection_3">
    <defs>
     <path id="m480a19d2af" d="M 122.563636 -45.883636 
L 122.563636 -45.883636 
L 124.560331 -66.15009 
L 126.557025 -80.404741 
L 128.553719 -91.249268 
L 130.550413 -104.330058 
L 132.547107 -122.420932 
L 134.543802 -131.178669 
L 136.540496 -135.221671 
L 138.53719 -148.605418 
L 140.533884 -148.594755 
L 142.530579 -159.42242 
L 144.527273 -163.30949 
L 146.523967 -176.140266 
L 148.520661 -176.140266 
L 150.517355 -176.140266 
L 152.51405 -182.251245 
L 154.510744 -186.623848 
L 156.507438 -186.623848 
L 158.504132 -186.623848 
L 160.500826 -186.623848 
L 162.497521 -186.623848 
L 164.494215 -186.623848 
L 166.490909 -186.623848 
L 168.487603 -186.623848 
L 170.484298 -186.623848 
L 172.480992 -186.623848 
L 174.477686 -186.623848 
L 176.47438 -186.623848 
L 178.471074 -186.623848 
L 180.467769 -186.623848 
L 182.464463 -186.623848 
L 184.461157 -189.642241 
L 186.457851 -191.685303 
L 188.454545 -191.685303 
L 190.45124 -191.685303 
L 192.447934 -191.685303 
L 194.444628 -191.685303 
L 196.441322 -191.685303 
L 198.438017 -191.685303 
L 200.434711 -196.687431 
L 202.431405 -201.313618 
L 204.428099 -201.313618 
L 206.424793 -201.313618 
L 208.421488 -201.313618 
L 210.418182 -201.313618 
L 212.414876 -201.313618 
L 214.41157 -201.313618 
L 216.408264 -201.313618 
L 218.404959 -201.313618 
L 220.401653 -201.313618 
L 222.398347 -201.313618 
L 224.395041 -201.313618 
L 226.391736 -201.313618 
L 228.38843 -201.313618 
L 230.385124 -201.313618 
L 232.381818 -201.313618 
L 234.378512 -201.313618 
L 236.375207 -201.313618 
L 238.371901 -201.313618 
L 240.368595 -201.313618 
L 242.365289 -201.313618 
L 244.361983 -201.313618 
L 246.358678 -208.35297 
L 248.355372 -208.35297 
L 250.352066 -208.35297 
L 252.34876 -212.377631 
L 254.345455 -214.273524 
L 256.342149 -214.273524 
L 258.338843 -231.960791 
L 260.335537 -231.960791 
L 262.332231 -231.960791 
L 264.328926 -232.966661 
L 266.32562 -243.556364 
L 268.322314 -243.556364 
L 270.319008 -243.556364 
L 272.315702 -243.556364 
L 274.312397 -243.556364 
L 276.309091 -243.556364 
L 278.305785 -243.556364 
L 280.302479 -243.556364 
L 282.299174 -243.556364 
L 284.295868 -243.556364 
L 286.292562 -243.556364 
L 288.289256 -243.556364 
L 290.28595 -243.556364 
L 292.282645 -243.556364 
L 294.279339 -243.556364 
L 296.276033 -243.556364 
L 298.272727 -243.556364 
L 300.269421 -243.556364 
L 302.266116 -243.556364 
L 304.26281 -243.556364 
L 306.259504 -243.556364 
L 308.256198 -243.556364 
L 310.252893 -243.556364 
L 312.249587 -243.556364 
L 314.246281 -243.556364 
L 316.242975 -243.556364 
L 318.239669 -243.556364 
L 320.236364 -243.556364 
L 320.236364 -243.556364 
L 320.236364 -243.556364 
L 318.239669 -243.556364 
L 316.242975 -243.556364 
L 314.246281 -243.556364 
L 312.249587 -243.556364 
L 310.252893 -243.556364 
L 308.256198 -243.556364 
L 306.259504 -243.556364 
L 304.26281 -243.556364 
L 302.266116 -243.556364 
L 300.269421 -243.556364 
L 298.272727 -243.556364 
L 296.276033 -243.556364 
L 294.279339 -243.556364 
L 292.282645 -243.556364 
L 290.28595 -243.556364 
L 288.289256 -243.556364 
L 286.292562 -243.556364 
L 284.295868 -243.556364 
L 282.299174 -243.556364 
L 280.302479 -243.556364 
L 278.305785 -243.556364 
L 276.309091 -243.556364 
L 274.312397 -243.556364 
L 272.315702 -243.556364 
L 270.319008 -243.556364 
L 268.322314 -243.556364 
L 266.32562 -243.556364 
L 264.328926 -243.556364 
L 262.332231 -243.556364 
L 260.335537 -243.556364 
L 258.338843 -243.556364 
L 256.342149 -243.556364 
L 254.345455 -243.556364 
L 252.34876 -243.556364 
L 250.352066 -243.261191 
L 248.355372 -243.261191 
L 246.358678 -243.261191 
L 244.361983 -240.908217 
L 242.365289 -240.908217 
L 240.368595 -240.908217 
L 238.371901 -240.908217 
L 236.375207 -240.908217 
L 234.378512 -240.908217 
L 232.381818 -240.908217 
L 230.385124 -240.908217 
L 228.38843 -240.908217 
L 226.391736 -240.908217 
L 224.395041 -240.908217 
L 222.398347 -240.908217 
L 220.401653 -240.908217 
L 218.404959 -240.908217 
L 216.408264 -240.908217 
L 214.41157 -240.908217 
L 212.414876 -240.908217 
L 210.418182 -240.908217 
L 208.421488 -240.908217 
L 206.424793 -240.908217 
L 204.428099 -240.908217 
L 202.431405 -240.908217 
L 200.434711 -237.39873 
L 198.438017 -233.53596 
L 196.441322 -233.53596 
L 194.444628 -233.53596 
L 192.447934 -233.53596 
L 190.45124 -233.53596 
L 188.454545 -233.53596 
L 186.457851 -233.53596 
L 184.461157 -232.926626 
L 182.464463 -229.216458 
L 180.467769 -229.216458 
L 178.471074 -229.216458 
L 176.47438 -229.216458 
L 174.477686 -229.216458 
L 172.480992 -229.216458 
L 170.484298 -229.216458 
L 168.487603 -229.216458 
L 166.490909 -229.216458 
L 164.494215 -229.216458 
L 162.497521 -229.216458 
L 160.500826 -229.216458 
L 158.504132 -229.216458 
L 156.507438 -229.216458 
L 154.510744 -229.216458 
L 152.51405 -225.550625 
L 150.517355 -222.577013 
L 148.520661 -222.577013 
L 146.523967 -222.577013 
L 144.527273 -216.03622 
L 142.530579 -213.466889 
L 140.533884 -204.875861 
L 138.53719 -204.601635 
L 136.540496 -198.382353 
L 134.543802 -194.337288 
L 132.547107 -184.748524 
L 130.550413 -162.056134 
L 128.553719 -145.786183 
L 126.557025 -131.104729 
L 124.560331 -110.064105 
L 122.563636 -45.883636 
z
" style="stroke: #8de5a1; stroke-opacity: 0.2"/>
    </defs>
    <g clip-path="url(#p57614e0938)">
     <use xlink:href="#m480a19d2af" x="0" y="288" style="fill: #8de5a1; fill-opacity: 0.2; stroke: #8de5a1; stroke-opacity: 0.2"/>
    </g>
   </g>
   <g id="matplotlib.axis_1"/>
   <g id="matplotlib.axis_2"/>
   <g id="line2d_1">
    <path d="M 122.563636 242.07835 
L 124.560331 180.221384 
L 126.557025 170.590513 
L 128.553719 160.129019 
L 130.550413 137.69994 
L 132.547107 133.832666 
L 134.543802 133.254292 
L 136.540496 128.3074 
L 138.53719 128.3074 
L 140.533884 125.774019 
L 142.530579 118.761835 
L 144.527273 118.761835 
L 146.523967 118.761835 
L 148.520661 114.573278 
L 150.517355 107.465979 
L 152.51405 91.144733 
L 154.510744 91.144733 
L 156.507438 90.407804 
L 158.504132 86.237255 
L 160.500826 85.60769 
L 162.497521 81.76367 
L 164.494215 81.76367 
L 166.490909 81.76367 
L 168.487603 81.76367 
L 170.484298 81.76367 
L 172.480992 76.762717 
L 174.477686 76.762717 
L 176.47438 72.644707 
L 178.471074 67.915317 
L 180.467769 67.915317 
L 182.464463 67.915317 
L 184.461157 67.915317 
L 186.457851 61.119186 
L 188.454545 59.076549 
L 190.45124 59.076549 
L 192.447934 59.076549 
L 194.444628 59.076549 
L 196.441322 59.076549 
L 198.438017 59.076549 
L 200.434711 59.076549 
L 202.431405 59.076549 
L 204.428099 59.076549 
L 206.424793 59.076549 
L 208.421488 59.076549 
L 210.418182 59.076549 
L 212.414876 59.076549 
L 214.41157 59.076549 
L 216.408264 55.186224 
L 218.404959 54.309231 
L 220.401653 54.309231 
L 222.398347 54.309231 
L 224.395041 54.309231 
L 226.391736 54.309231 
L 228.38843 49.324293 
L 230.385124 49.324293 
L 232.381818 49.324293 
L 234.378512 49.324293 
L 236.375207 49.324293 
L 238.371901 49.324293 
L 240.368595 49.324293 
L 242.365289 49.324293 
L 244.361983 49.324293 
L 246.358678 49.324293 
L 248.355372 49.324293 
L 250.352066 49.324293 
L 252.34876 49.324293 
L 254.345455 49.324293 
L 256.342149 49.324293 
L 258.338843 49.324293 
L 260.335537 49.324293 
L 262.332231 49.324293 
L 264.328926 49.324293 
L 266.32562 49.324293 
L 268.322314 49.324293 
L 270.319008 49.324293 
L 272.315702 49.324293 
L 274.312397 49.324293 
L 276.309091 49.324293 
L 278.305785 49.324293 
L 280.302479 49.324293 
L 282.299174 44.443636 
L 284.295868 44.443636 
L 286.292562 44.443636 
L 288.289256 44.443636 
L 290.28595 44.443636 
L 292.282645 44.443636 
L 294.279339 44.443636 
L 296.276033 44.443636 
L 298.272727 44.443636 
L 300.269421 44.443636 
L 302.266116 44.443636 
L 304.26281 44.443636 
L 306.259504 44.443636 
L 308.256198 44.443636 
L 310.252893 44.443636 
L 312.249587 44.443636 
L 314.246281 44.443636 
L 316.242975 44.443636 
L 318.239669 44.443636 
L 320.236364 44.443636 
" clip-path="url(#p57614e0938)" style="fill: none; stroke: #a1c9f4; stroke-opacity: 0.8; stroke-width: 1.5; stroke-linecap: square"/>
   </g>
   <g id="line2d_2">
    <path d="M 122.563636 242.116364 
L 124.560331 231.35336 
L 126.557025 223.927191 
L 128.553719 211.643516 
L 130.550413 206.603676 
L 132.547107 195.774749 
L 134.543802 195.774749 
L 136.540496 186.051765 
L 138.53719 180.61887 
L 140.533884 173.519986 
L 142.530579 173.519986 
L 144.527273 169.944264 
L 146.523967 159.363554 
L 148.520661 157.380581 
L 150.517355 155.619406 
L 152.51405 155.619406 
L 154.510744 153.380761 
L 156.507438 148.253338 
L 158.504132 147.101901 
L 160.500826 145.950464 
L 162.497521 144.799026 
L 164.494215 143.647589 
L 166.490909 142.496151 
L 168.487603 141.50142 
L 170.484298 137.234396 
L 172.480992 130.495125 
L 174.477686 130.401878 
L 176.47438 130.401878 
L 178.471074 130.401878 
L 180.467769 129.681287 
L 182.464463 127.789351 
L 184.461157 125.897272 
L 186.457851 124.005193 
L 188.454545 122.885675 
L 190.45124 122.224902 
L 192.447934 114.901515 
L 194.444628 111.26123 
L 196.441322 108.248947 
L 198.438017 103.938593 
L 200.434711 101.937615 
L 202.431405 101.937615 
L 204.428099 101.773634 
L 206.424793 100.98393 
L 208.421488 100.193038 
L 210.418182 99.402145 
L 212.414876 98.611252 
L 214.41157 97.820359 
L 216.408264 97.029467 
L 218.404959 96.238574 
L 220.401653 95.447681 
L 222.398347 91.53495 
L 224.395041 91.212697 
L 226.391736 89.718182 
L 228.38843 88.315333 
L 230.385124 86.922407 
L 232.381818 84.9919 
L 234.378512 83.061392 
L 236.375207 81.179263 
L 238.371901 79.572545 
L 240.368595 77.974223 
L 242.365289 76.3759 
L 244.361983 74.777578 
L 246.358678 73.179255 
L 248.355372 71.580933 
L 250.352066 69.98261 
L 252.34876 68.384288 
L 254.345455 67.049934 
L 256.342149 67.043559 
L 258.338843 67.043559 
L 260.335537 66.638208 
L 262.332231 64.875203 
L 264.328926 63.1581 
L 266.32562 63.035523 
L 268.322314 63.035523 
L 270.319008 63.035523 
L 272.315702 63.035523 
L 274.312397 62.9933 
L 276.309091 55.670102 
L 278.305785 55.169899 
L 280.302479 54.595965 
L 282.299174 54.022031 
L 284.295868 53.448097 
L 286.292562 52.874162 
L 288.289256 52.300228 
L 290.28595 51.746021 
L 292.282645 51.202071 
L 294.279339 50.658121 
L 296.276033 50.11417 
L 298.272727 49.57022 
L 300.269421 49.02627 
L 302.266116 48.482319 
L 304.26281 47.938369 
L 306.259504 47.394419 
L 308.256198 46.850468 
L 310.252893 46.306518 
L 312.249587 45.762568 
L 314.246281 45.218617 
L 316.242975 44.674667 
L 318.239669 44.443636 
L 320.236364 44.443636 
" clip-path="url(#p57614e0938)" style="fill: none; stroke: #ffb482; stroke-opacity: 0.8; stroke-width: 1.5; stroke-linecap: square"/>
   </g>
   <g id="line2d_3">
    <path d="M 122.563636 242.116364 
L 124.560331 199.892903 
L 126.557025 182.245265 
L 128.553719 169.482275 
L 130.550413 154.806904 
L 132.547107 134.415272 
L 134.543802 125.242021 
L 136.540496 121.197988 
L 138.53719 111.396474 
L 140.533884 111.264692 
L 142.530579 101.555345 
L 144.527273 98.327145 
L 146.523967 88.64136 
L 148.520661 88.64136 
L 150.517355 88.64136 
L 152.51405 84.099065 
L 154.510744 80.079847 
L 156.507438 80.079847 
L 158.504132 80.079847 
L 160.500826 80.079847 
L 162.497521 80.079847 
L 164.494215 80.079847 
L 166.490909 80.079847 
L 168.487603 80.079847 
L 170.484298 80.079847 
L 172.480992 80.079847 
L 174.477686 80.079847 
L 176.47438 80.079847 
L 178.471074 80.079847 
L 180.467769 80.079847 
L 182.464463 80.079847 
L 184.461157 76.715567 
L 186.457851 75.389368 
L 188.454545 75.389368 
L 190.45124 75.389368 
L 192.447934 75.389368 
L 194.444628 75.389368 
L 196.441322 75.389368 
L 198.438017 75.389368 
L 200.434711 70.95692 
L 202.431405 66.889083 
L 204.428099 66.889083 
L 206.424793 66.889083 
L 208.421488 66.889083 
L 210.418182 66.889083 
L 212.414876 66.889083 
L 214.41157 66.889083 
L 216.408264 66.889083 
L 218.404959 66.889083 
L 220.401653 66.889083 
L 222.398347 66.889083 
L 224.395041 66.889083 
L 226.391736 66.889083 
L 228.38843 66.889083 
L 230.385124 66.889083 
L 232.381818 66.889083 
L 234.378512 66.889083 
L 236.375207 66.889083 
L 238.371901 66.889083 
L 240.368595 66.889083 
L 242.365289 66.889083 
L 244.361983 66.889083 
L 246.358678 62.192919 
L 248.355372 62.192919 
L 250.352066 62.192919 
L 252.34876 58.751735 
L 254.345455 57.830611 
L 256.342149 57.830611 
L 258.338843 47.935687 
L 260.335537 47.935687 
L 262.332231 47.935687 
L 264.328926 47.413874 
L 266.32562 44.443636 
L 268.322314 44.443636 
L 270.319008 44.443636 
L 272.315702 44.443636 
L 274.312397 44.443636 
L 276.309091 44.443636 
L 278.305785 44.443636 
L 280.302479 44.443636 
L 282.299174 44.443636 
L 284.295868 44.443636 
L 286.292562 44.443636 
L 288.289256 44.443636 
L 290.28595 44.443636 
L 292.282645 44.443636 
L 294.279339 44.443636 
L 296.276033 44.443636 
L 298.272727 44.443636 
L 300.269421 44.443636 
L 302.266116 44.443636 
L 304.26281 44.443636 
L 306.259504 44.443636 
L 308.256198 44.443636 
L 310.252893 44.443636 
L 312.249587 44.443636 
L 314.246281 44.443636 
L 316.242975 44.443636 
L 318.239669 44.443636 
L 320.236364 44.443636 
" clip-path="url(#p57614e0938)" style="fill: none; stroke: #8de5a1; stroke-opacity: 0.8; stroke-width: 1.5; stroke-linecap: square"/>
   </g>
   <g id="line2d_4">
    <path d="M 122.563636 242.116364 
L 320.236364 44.443636 
" clip-path="url(#p57614e0938)" style="fill: none; stroke-dasharray: 5.55,2.4; stroke-dashoffset: 0; stroke: #808080; stroke-width: 1.5"/>
   </g>
   <g id="patch_3">
    <path d="M 112.68 252 
L 112.68 34.56 
" style="fill: none; stroke: #000000; stroke-width: 0.8; stroke-linejoin: miter; stroke-linecap: square"/>
   </g>
   <g id="patch_4">
    <path d="M 330.12 252 
L 330.12 34.56 
" style="fill: none; stroke: #000000; stroke-width: 0.8; stroke-linejoin: miter; stroke-linecap: square"/>
   </g>
   <g id="patch_5">
    <path d="M 112.68 252 
L 330.12 252 
" style="fill: none; stroke: #000000; stroke-width: 0.8; stroke-linejoin: miter; stroke-linecap: square"/>
   </g>
   <g id="patch_6">
    <path d="M 112.68 34.56 
L 330.12 34.56 
" style="fill: none; stroke: #000000; stroke-width: 0.8; stroke-linejoin: miter; stroke-linecap: square"/>
   </g>
   <g id="text_1">
    <!-- ROC on Predicting Flu Positivity -->
    <g transform="translate(122.862188 28.56)scale(0.12 -0.12)">
     <defs>
      <path id="DejaVuSerif-52" d="M 3066 2316 
Q 3284 2256 3442 2114 
Q 3600 1972 3725 1716 
L 4403 331 
L 4972 331 
L 4972 0 
L 3872 0 
L 3144 1484 
Q 2934 1916 2759 2042 
Q 2584 2169 2278 2169 
L 1581 2169 
L 1581 331 
L 2241 331 
L 2241 0 
L 353 0 
L 353 331 
L 947 331 
L 947 4331 
L 353 4331 
L 353 4666 
L 2719 4666 
Q 3400 4666 3770 4341 
Q 4141 4016 4141 3419 
Q 4141 2938 3870 2661 
Q 3600 2384 3066 2316 
z
M 1581 2503 
L 2503 2503 
Q 2975 2503 3200 2726 
Q 3425 2950 3425 3419 
Q 3425 3888 3200 4109 
Q 2975 4331 2503 4331 
L 1581 4331 
L 1581 2503 
z
" transform="scale(0.015625)"/>
      <path id="DejaVuSerif-4f" d="M 2625 244 
Q 3391 244 3781 770 
Q 4172 1297 4172 2328 
Q 4172 3363 3781 3889 
Q 3391 4416 2625 4416 
Q 1856 4416 1465 3889 
Q 1075 3363 1075 2328 
Q 1075 1297 1465 770 
Q 1856 244 2625 244 
z
M 2625 -91 
Q 2150 -91 1751 65 
Q 1353 222 1050 525 
Q 700 875 529 1319 
Q 359 1763 359 2328 
Q 359 2894 529 3339 
Q 700 3784 1050 4134 
Q 1356 4441 1750 4595 
Q 2144 4750 2625 4750 
Q 3641 4750 4266 4084 
Q 4891 3419 4891 2328 
Q 4891 1769 4719 1320 
Q 4547 872 4197 525 
Q 3891 219 3497 64 
Q 3103 -91 2625 -91 
z
" transform="scale(0.015625)"/>
      <path id="DejaVuSerif-43" d="M 4513 1234 
Q 4306 581 3820 245 
Q 3334 -91 2591 -91 
Q 2134 -91 1743 65 
Q 1353 222 1050 525 
Q 700 875 529 1320 
Q 359 1766 359 2328 
Q 359 3416 987 4083 
Q 1616 4750 2644 4750 
Q 3025 4750 3456 4650 
Q 3888 4550 4384 4347 
L 4384 3272 
L 4031 3272 
Q 3916 3859 3567 4137 
Q 3219 4416 2591 4416 
Q 1844 4416 1459 3886 
Q 1075 3356 1075 2328 
Q 1075 1303 1459 773 
Q 1844 244 2591 244 
Q 3113 244 3450 492 
Q 3788 741 3938 1234 
L 4513 1234 
z
" transform="scale(0.015625)"/>
      <path id="DejaVuSerif-20" transform="scale(0.015625)"/>
      <path id="DejaVuSerif-6f" d="M 1925 219 
Q 2388 219 2623 584 
Q 2859 950 2859 1663 
Q 2859 2375 2623 2739 
Q 2388 3103 1925 3103 
Q 1463 3103 1227 2739 
Q 991 2375 991 1663 
Q 991 950 1228 584 
Q 1466 219 1925 219 
z
M 1925 -91 
Q 1200 -91 759 389 
Q 319 869 319 1663 
Q 319 2456 758 2934 
Q 1197 3413 1925 3413 
Q 2653 3413 3092 2934 
Q 3531 2456 3531 1663 
Q 3531 869 3092 389 
Q 2653 -91 1925 -91 
z
" transform="scale(0.015625)"/>
      <path id="DejaVuSerif-6e" d="M 263 0 
L 263 331 
L 781 331 
L 781 2988 
L 231 2988 
L 231 3322 
L 1356 3322 
L 1356 2731 
Q 1516 3069 1770 3241 
Q 2025 3413 2363 3413 
Q 2913 3413 3172 3097 
Q 3431 2781 3431 2113 
L 3431 331 
L 3944 331 
L 3944 0 
L 2356 0 
L 2356 331 
L 2853 331 
L 2853 1931 
Q 2853 2541 2703 2767 
Q 2553 2994 2175 2994 
Q 1775 2994 1565 2701 
Q 1356 2409 1356 1850 
L 1356 331 
L 1856 331 
L 1856 0 
L 263 0 
z
" transform="scale(0.015625)"/>
      <path id="DejaVuSerif-50" d="M 1581 2375 
L 2406 2375 
Q 2872 2375 3115 2626 
Q 3359 2878 3359 3353 
Q 3359 3831 3115 4081 
Q 2872 4331 2406 4331 
L 1581 4331 
L 1581 2375 
z
M 353 0 
L 353 331 
L 947 331 
L 947 4331 
L 353 4331 
L 353 4666 
L 2559 4666 
Q 3259 4666 3668 4311 
Q 4078 3956 4078 3353 
Q 4078 2753 3668 2397 
Q 3259 2041 2559 2041 
L 1581 2041 
L 1581 331 
L 2303 331 
L 2303 0 
L 353 0 
z
" transform="scale(0.015625)"/>
      <path id="DejaVuSerif-72" d="M 3059 3328 
L 3059 2497 
L 2728 2497 
Q 2713 2744 2591 2866 
Q 2469 2988 2234 2988 
Q 1809 2988 1582 2694 
Q 1356 2400 1356 1850 
L 1356 331 
L 2022 331 
L 2022 0 
L 263 0 
L 263 331 
L 781 331 
L 781 2994 
L 231 2994 
L 231 3322 
L 1356 3322 
L 1356 2731 
Q 1525 3078 1790 3245 
Q 2056 3413 2438 3413 
Q 2578 3413 2733 3391 
Q 2888 3369 3059 3328 
z
" transform="scale(0.015625)"/>
      <path id="DejaVuSerif-65" d="M 3469 1600 
L 991 1600 
L 991 1575 
Q 991 903 1244 561 
Q 1497 219 1991 219 
Q 2369 219 2611 417 
Q 2853 616 2950 1006 
L 3413 1006 
Q 3275 459 2904 184 
Q 2534 -91 1931 -91 
Q 1203 -91 761 389 
Q 319 869 319 1663 
Q 319 2450 753 2931 
Q 1188 3413 1894 3413 
Q 2647 3413 3050 2948 
Q 3453 2484 3469 1600 
z
M 2791 1931 
Q 2772 2513 2545 2808 
Q 2319 3103 1894 3103 
Q 1497 3103 1269 2806 
Q 1041 2509 991 1931 
L 2791 1931 
z
" transform="scale(0.015625)"/>
      <path id="DejaVuSerif-64" d="M 3359 331 
L 3909 331 
L 3909 0 
L 2784 0 
L 2784 519 
Q 2616 206 2355 57 
Q 2094 -91 1709 -91 
Q 1097 -91 708 395 
Q 319 881 319 1663 
Q 319 2444 706 2928 
Q 1094 3413 1709 3413 
Q 2094 3413 2355 3264 
Q 2616 3116 2784 2803 
L 2784 4531 
L 2241 4531 
L 2241 4863 
L 3359 4863 
L 3359 331 
z
M 2784 1497 
L 2784 1825 
Q 2784 2422 2554 2737 
Q 2325 3053 1888 3053 
Q 1444 3053 1217 2703 
Q 991 2353 991 1663 
Q 991 975 1217 622 
Q 1444 269 1888 269 
Q 2325 269 2554 583 
Q 2784 897 2784 1497 
z
" transform="scale(0.015625)"/>
      <path id="DejaVuSerif-69" d="M 622 4353 
Q 622 4497 726 4603 
Q 831 4709 978 4709 
Q 1122 4709 1226 4603 
Q 1331 4497 1331 4353 
Q 1331 4206 1228 4103 
Q 1125 4000 978 4000 
Q 831 4000 726 4103 
Q 622 4206 622 4353 
z
M 1356 331 
L 1900 331 
L 1900 0 
L 231 0 
L 231 331 
L 781 331 
L 781 2988 
L 231 2988 
L 231 3322 
L 1356 3322 
L 1356 331 
z
" transform="scale(0.015625)"/>
      <path id="DejaVuSerif-63" d="M 3291 997 
Q 3169 466 2822 187 
Q 2475 -91 1925 -91 
Q 1200 -91 759 389 
Q 319 869 319 1663 
Q 319 2459 759 2936 
Q 1200 3413 1925 3413 
Q 2241 3413 2553 3339 
Q 2866 3266 3181 3116 
L 3181 2266 
L 2847 2266 
Q 2781 2703 2561 2903 
Q 2341 3103 1931 3103 
Q 1466 3103 1228 2742 
Q 991 2381 991 1663 
Q 991 944 1227 581 
Q 1463 219 1931 219 
Q 2303 219 2525 412 
Q 2747 606 2828 997 
L 3291 997 
z
" transform="scale(0.015625)"/>
      <path id="DejaVuSerif-74" d="M 691 2988 
L 184 2988 
L 184 3322 
L 691 3322 
L 691 4353 
L 1269 4353 
L 1269 3322 
L 2350 3322 
L 2350 2988 
L 1269 2988 
L 1269 878 
Q 1269 456 1350 337 
Q 1431 219 1650 219 
Q 1875 219 1978 351 
Q 2081 484 2088 781 
L 2522 781 
Q 2497 328 2275 118 
Q 2053 -91 1600 -91 
Q 1103 -91 897 129 
Q 691 350 691 878 
L 691 2988 
z
" transform="scale(0.015625)"/>
      <path id="DejaVuSerif-67" d="M 3359 2988 
L 3359 72 
Q 3359 -644 2965 -1033 
Q 2572 -1422 1844 -1422 
Q 1516 -1422 1216 -1362 
Q 916 -1303 641 -1184 
L 641 -488 
L 941 -488 
Q 997 -813 1206 -963 
Q 1416 -1113 1806 -1113 
Q 2313 -1113 2548 -827 
Q 2784 -541 2784 72 
L 2784 519 
Q 2616 206 2355 57 
Q 2094 -91 1709 -91 
Q 1097 -91 708 395 
Q 319 881 319 1663 
Q 319 2444 706 2928 
Q 1094 3413 1709 3413 
Q 2094 3413 2355 3264 
Q 2616 3116 2784 2803 
L 2784 3322 
L 3909 3322 
L 3909 2988 
L 3359 2988 
z
M 2784 1825 
Q 2784 2422 2554 2737 
Q 2325 3053 1888 3053 
Q 1444 3053 1217 2703 
Q 991 2353 991 1663 
Q 991 975 1217 622 
Q 1444 269 1888 269 
Q 2325 269 2554 583 
Q 2784 897 2784 1497 
L 2784 1825 
z
" transform="scale(0.015625)"/>
      <path id="DejaVuSerif-46" d="M 353 0 
L 353 331 
L 947 331 
L 947 4331 
L 353 4331 
L 353 4666 
L 4172 4666 
L 4172 3628 
L 3788 3628 
L 3788 4281 
L 1581 4281 
L 1581 2719 
L 3175 2719 
L 3175 3303 
L 3559 3303 
L 3559 1753 
L 3175 1753 
L 3175 2338 
L 1581 2338 
L 1581 331 
L 2328 331 
L 2328 0 
L 353 0 
z
" transform="scale(0.015625)"/>
      <path id="DejaVuSerif-6c" d="M 1313 331 
L 1856 331 
L 1856 0 
L 184 0 
L 184 331 
L 738 331 
L 738 4531 
L 184 4531 
L 184 4863 
L 1313 4863 
L 1313 331 
z
" transform="scale(0.015625)"/>
      <path id="DejaVuSerif-75" d="M 2266 3322 
L 3341 3322 
L 3341 331 
L 3884 331 
L 3884 0 
L 2766 0 
L 2766 588 
Q 2606 256 2353 82 
Q 2100 -91 1766 -91 
Q 1213 -91 952 223 
Q 691 538 691 1209 
L 691 2988 
L 172 2988 
L 172 3322 
L 1269 3322 
L 1269 1388 
Q 1269 781 1417 556 
Q 1566 331 1947 331 
Q 2347 331 2556 625 
Q 2766 919 2766 1478 
L 2766 2988 
L 2266 2988 
L 2266 3322 
z
" transform="scale(0.015625)"/>
      <path id="DejaVuSerif-73" d="M 359 184 
L 359 959 
L 691 959 
Q 703 588 923 403 
Q 1144 219 1575 219 
Q 1963 219 2166 364 
Q 2369 509 2369 788 
Q 2369 1006 2220 1140 
Q 2072 1275 1594 1428 
L 1178 1569 
Q 750 1706 558 1912 
Q 366 2119 366 2438 
Q 366 2894 700 3153 
Q 1034 3413 1625 3413 
Q 1888 3413 2178 3344 
Q 2469 3275 2778 3144 
L 2778 2419 
L 2447 2419 
Q 2434 2741 2221 2922 
Q 2009 3103 1644 3103 
Q 1281 3103 1095 2975 
Q 909 2847 909 2591 
Q 909 2381 1050 2254 
Q 1191 2128 1613 1997 
L 2069 1856 
Q 2541 1709 2748 1489 
Q 2956 1269 2956 922 
Q 2956 450 2595 179 
Q 2234 -91 1600 -91 
Q 1278 -91 972 -22 
Q 666 47 359 184 
z
" transform="scale(0.015625)"/>
      <path id="DejaVuSerif-76" d="M 1581 0 
L 359 2988 
L -19 2988 
L -19 3322 
L 1509 3322 
L 1509 2988 
L 978 2988 
L 1913 703 
L 2847 2988 
L 2350 2988 
L 2350 3322 
L 3597 3322 
L 3597 2988 
L 3225 2988 
L 2003 0 
L 1581 0 
z
" transform="scale(0.015625)"/>
      <path id="DejaVuSerif-79" d="M 1381 -609 
L 1600 -56 
L 359 2988 
L -19 2988 
L -19 3322 
L 1509 3322 
L 1509 2988 
L 978 2988 
L 1913 703 
L 2847 2988 
L 2350 2988 
L 2350 3322 
L 3597 3322 
L 3597 2988 
L 3225 2988 
L 1703 -750 
Q 1547 -1138 1356 -1280 
Q 1166 -1422 819 -1422 
Q 672 -1422 517 -1397 
Q 363 -1372 206 -1325 
L 206 -691 
L 500 -691 
Q 519 -903 608 -995 
Q 697 -1088 884 -1088 
Q 1056 -1088 1161 -992 
Q 1266 -897 1381 -609 
z
" transform="scale(0.015625)"/>
     </defs>
     <use xlink:href="#DejaVuSerif-52"/>
     <use xlink:href="#DejaVuSerif-4f" x="75.292969"/>
     <use xlink:href="#DejaVuSerif-43" x="157.275391"/>
     <use xlink:href="#DejaVuSerif-20" x="233.789062"/>
     <use xlink:href="#DejaVuSerif-6f" x="265.576172"/>
     <use xlink:href="#DejaVuSerif-6e" x="325.78125"/>
     <use xlink:href="#DejaVuSerif-20" x="390.185547"/>
     <use xlink:href="#DejaVuSerif-50" x="421.972656"/>
     <use xlink:href="#DejaVuSerif-72" x="489.257812"/>
     <use xlink:href="#DejaVuSerif-65" x="537.060547"/>
     <use xlink:href="#DejaVuSerif-64" x="596.240234"/>
     <use xlink:href="#DejaVuSerif-69" x="660.253906"/>
     <use xlink:href="#DejaVuSerif-63" x="692.236328"/>
     <use xlink:href="#DejaVuSerif-74" x="748.242188"/>
     <use xlink:href="#DejaVuSerif-69" x="788.427734"/>
     <use xlink:href="#DejaVuSerif-6e" x="820.410156"/>
     <use xlink:href="#DejaVuSerif-67" x="884.814453"/>
     <use xlink:href="#DejaVuSerif-20" x="948.828125"/>
     <use xlink:href="#DejaVuSerif-46" x="980.615234"/>
     <use xlink:href="#DejaVuSerif-6c" x="1050"/>
     <use xlink:href="#DejaVuSerif-75" x="1081.982422"/>
     <use xlink:href="#DejaVuSerif-20" x="1146.386719"/>
     <use xlink:href="#DejaVuSerif-50" x="1178.173828"/>
     <use xlink:href="#DejaVuSerif-6f" x="1241.458984"/>
     <use xlink:href="#DejaVuSerif-73" x="1301.664062"/>
     <use xlink:href="#DejaVuSerif-69" x="1352.982422"/>
     <use xlink:href="#DejaVuSerif-74" x="1384.964844"/>
     <use xlink:href="#DejaVuSerif-69" x="1425.150391"/>
     <use xlink:href="#DejaVuSerif-76" x="1457.132812"/>
     <use xlink:href="#DejaVuSerif-69" x="1513.626953"/>
     <use xlink:href="#DejaVuSerif-74" x="1545.609375"/>
     <use xlink:href="#DejaVuSerif-79" x="1585.794922"/>
    </g>
   </g>
   <g id="legend_1">
    <g id="patch_7">
     <path d="M 236.745 247 
L 323.12 247 
Q 325.12 247 325.12 245 
L 325.12 201.965625 
Q 325.12 199.965625 323.12 199.965625 
L 236.745 199.965625 
Q 234.745 199.965625 234.745 201.965625 
L 234.745 245 
Q 234.745 247 236.745 247 
z
" style="fill: #ffffff; opacity: 0.8; stroke: #cccccc; stroke-linejoin: miter"/>
    </g>
    <g id="line2d_5">
     <path d="M 238.745 208.064063 
L 248.745 208.064063 
L 258.745 208.064063 
" style="fill: none; stroke: #a1c9f4; stroke-opacity: 0.8; stroke-width: 1.5; stroke-linecap: square"/>
    </g>
    <g id="text_2">
     <!-- Our Model -->
     <g transform="translate(266.745 211.564063)scale(0.1 -0.1)">
      <defs>
       <path id="DejaVuSerif-4d" d="M 353 0 
L 353 331 
L 947 331 
L 947 4331 
L 319 4331 
L 319 4666 
L 1678 4666 
L 3316 1344 
L 4953 4666 
L 6228 4666 
L 6228 4331 
L 5606 4331 
L 5606 331 
L 6203 331 
L 6203 0 
L 4378 0 
L 4378 331 
L 4972 331 
L 4972 3938 
L 3372 684 
L 2931 684 
L 1331 3938 
L 1331 331 
L 1925 331 
L 1925 0 
L 353 0 
z
" transform="scale(0.015625)"/>
      </defs>
      <use xlink:href="#DejaVuSerif-4f"/>
      <use xlink:href="#DejaVuSerif-75" x="81.982422"/>
      <use xlink:href="#DejaVuSerif-72" x="146.386719"/>
      <use xlink:href="#DejaVuSerif-20" x="194.189453"/>
      <use xlink:href="#DejaVuSerif-4d" x="225.976562"/>
      <use xlink:href="#DejaVuSerif-6f" x="328.369141"/>
      <use xlink:href="#DejaVuSerif-64" x="388.574219"/>
      <use xlink:href="#DejaVuSerif-65" x="452.587891"/>
      <use xlink:href="#DejaVuSerif-6c" x="511.767578"/>
     </g>
    </g>
    <g id="line2d_6">
     <path d="M 238.745 222.742188 
L 248.745 222.742188 
L 258.745 222.742188 
" style="fill: none; stroke: #ffb482; stroke-opacity: 0.8; stroke-width: 1.5; stroke-linecap: square"/>
    </g>
    <g id="text_3">
     <!-- XGBoost -->
     <g transform="translate(266.745 226.242188)scale(0.1 -0.1)">
      <defs>
       <path id="DejaVuSerif-58" d="M 2119 1997 
L 978 331 
L 1581 331 
L 1581 0 
L 38 0 
L 38 331 
L 575 331 
L 1919 2291 
L 556 4331 
L 56 4331 
L 56 4666 
L 1906 4666 
L 1906 4331 
L 1356 4331 
L 2356 2828 
L 3384 4331 
L 2784 4331 
L 2784 4666 
L 4313 4666 
L 4313 4331 
L 3788 4331 
L 2553 2534 
L 4025 331 
L 4525 331 
L 4525 0 
L 2675 0 
L 2675 331 
L 3231 331 
L 2119 1997 
z
" transform="scale(0.015625)"/>
       <path id="DejaVuSerif-47" d="M 4097 3272 
Q 3988 3856 3641 4136 
Q 3294 4416 2675 4416 
Q 1869 4416 1472 3897 
Q 1075 3378 1075 2328 
Q 1075 1300 1484 772 
Q 1894 244 2688 244 
Q 3041 244 3362 331 
Q 3684 419 3975 594 
L 3975 1797 
L 3097 1797 
L 3097 2131 
L 4609 2131 
L 4609 391 
Q 4194 150 3714 29 
Q 3234 -91 2688 -91 
Q 1631 -91 995 570 
Q 359 1231 359 2328 
Q 359 3434 996 4092 
Q 1634 4750 2713 4750 
Q 3113 4750 3539 4658 
Q 3966 4566 4447 4378 
L 4447 3272 
L 4097 3272 
z
" transform="scale(0.015625)"/>
       <path id="DejaVuSerif-42" d="M 1581 331 
L 2516 331 
Q 3078 331 3337 575 
Q 3597 819 3597 1350 
Q 3597 1878 3339 2120 
Q 3081 2363 2516 2363 
L 1581 2363 
L 1581 331 
z
M 1581 2694 
L 2375 2694 
Q 2888 2694 3123 2891 
Q 3359 3088 3359 3513 
Q 3359 3941 3123 4136 
Q 2888 4331 2375 4331 
L 1581 4331 
L 1581 2694 
z
M 353 0 
L 353 331 
L 947 331 
L 947 4331 
L 353 4331 
L 353 4666 
L 2656 4666 
Q 3363 4666 3720 4377 
Q 4078 4088 4078 3513 
Q 4078 3097 3829 2850 
Q 3581 2603 3103 2547 
Q 3697 2472 4005 2167 
Q 4313 1863 4313 1350 
Q 4313 656 3875 328 
Q 3438 0 2509 0 
L 353 0 
z
" transform="scale(0.015625)"/>
      </defs>
      <use xlink:href="#DejaVuSerif-58"/>
      <use xlink:href="#DejaVuSerif-47" x="71.191406"/>
      <use xlink:href="#DejaVuSerif-42" x="151.074219"/>
      <use xlink:href="#DejaVuSerif-6f" x="224.560547"/>
      <use xlink:href="#DejaVuSerif-6f" x="284.765625"/>
      <use xlink:href="#DejaVuSerif-73" x="344.970703"/>
      <use xlink:href="#DejaVuSerif-74" x="396.289062"/>
     </g>
    </g>
    <g id="line2d_7">
     <path d="M 238.745 237.420313 
L 248.745 237.420313 
L 258.745 237.420313 
" style="fill: none; stroke: #8de5a1; stroke-opacity: 0.8; stroke-width: 1.5; stroke-linecap: square"/>
    </g>
    <g id="text_4">
     <!-- CNN -->
     <g transform="translate(266.745 240.920313)scale(0.1 -0.1)">
      <defs>
       <path id="DejaVuSerif-4e" d="M 313 0 
L 313 331 
L 941 331 
L 941 4331 
L 313 4331 
L 313 4666 
L 1509 4666 
L 4306 984 
L 4306 4331 
L 3681 4331 
L 3681 4666 
L 5319 4666 
L 5319 4331 
L 4691 4331 
L 4691 -91 
L 4313 -91 
L 1325 3841 
L 1325 331 
L 1953 331 
L 1953 0 
L 313 0 
z
" transform="scale(0.015625)"/>
      </defs>
      <use xlink:href="#DejaVuSerif-43"/>
      <use xlink:href="#DejaVuSerif-4e" x="76.513672"/>
      <use xlink:href="#DejaVuSerif-4e" x="164.013672"/>
     </g>
    </g>
   </g>
  </g>
 </g>
 <defs>
  <clipPath id="p57614e0938">
   <rect x="112.68" y="34.56" width="217.44" height="217.44"/>
  </clipPath>
 </defs>
</svg>
