<?xml version="1.0" encoding="utf-8" standalone="no"?>
<!DOCTYPE svg PUBLIC "-//W3C//DTD SVG 1.1//EN"
  "http://www.w3.org/Graphics/SVG/1.1/DTD/svg11.dtd">
<svg xmlns:xlink="http://www.w3.org/1999/xlink" width="432pt" height="288pt" viewBox="0 0 432 288" xmlns="http://www.w3.org/2000/svg" version="1.1">
 <metadata>
  <rdf:RDF xmlns:dc="http://purl.org/dc/elements/1.1/" xmlns:cc="http://creativecommons.org/ns#" xmlns:rdf="http://www.w3.org/1999/02/22-rdf-syntax-ns#">
   <cc:Work>
    <dc:type rdf:resource="http://purl.org/dc/dcmitype/StillImage"/>
    <dc:date>2022-02-02T14:53:49.912571</dc:date>
    <dc:format>image/svg+xml</dc:format>
    <dc:creator>
     <cc:Agent>
      <dc:title>Matplotlib v3.5.1, https://matplotlib.org/</dc:title>
     </cc:Agent>
    </dc:creator>
   </cc:Work>
  </rdf:RDF>
 </metadata>
 <defs>
  <style type="text/css">*{stroke-linejoin: round; stroke-linecap: butt}</style>
 </defs>
 <g id="figure_1">
  <g id="patch_1">
   <path d="M 0 288 
L 432 288 
L 432 0 
L 0 0 
L 0 288 
z
" style="fill: none"/>
  </g>
  <g id="axes_1">
   <g id="patch_2">
    <path d="M 112.68 252 
L 330.12 252 
L 330.12 34.56 
L 112.68 34.56 
z
" style="fill: #ffffff"/>
   </g>
   <g id="matplotlib.axis_1"/>
   <g id="matplotlib.axis_2"/>
   <g id="line2d_1">
    <path d="M 122.563636 242.116364 
L 124.560331 179.29607 
L 126.557025 170.30259 
L 128.553719 159.224316 
L 130.550413 132.9238 
L 132.547107 128.750297 
L 134.543802 128.449282 
L 136.540496 124.889793 
L 138.53719 124.889793 
L 140.533884 122.553359 
L 142.530579 115.643485 
L 144.527273 115.643485 
L 146.523967 115.643485 
L 148.520661 111.360895 
L 150.517355 103.635665 
L 152.51405 88.98214 
L 154.510744 88.98214 
L 156.507438 87.821605 
L 158.504132 84.848974 
L 160.500826 84.049342 
L 162.497521 80.089535 
L 164.494215 80.089535 
L 166.490909 80.089535 
L 168.487603 80.089535 
L 170.484298 80.089535 
L 172.480992 75.504973 
L 174.477686 75.504973 
L 176.47438 71.087176 
L 178.471074 67.171913 
L 180.467769 67.171913 
L 182.464463 67.171913 
L 184.461157 67.171913 
L 186.457851 60.79333 
L 188.454545 59.053212 
L 190.45124 59.053212 
L 192.447934 59.053212 
L 194.444628 59.053212 
L 196.441322 59.053212 
L 198.438017 59.053212 
L 200.434711 59.053212 
L 202.431405 59.053212 
L 204.428099 59.053212 
L 206.424793 59.053212 
L 208.421488 59.053212 
L 210.418182 59.053212 
L 212.414876 59.053212 
L 214.41157 59.053212 
L 216.408264 55.330117 
L 218.404959 53.987176 
L 220.401653 53.987176 
L 222.398347 53.987176 
L 224.395041 53.987176 
L 226.391736 53.779515 
L 228.38843 49.5466 
L 230.385124 49.5466 
L 232.381818 49.5466 
L 234.378512 49.5466 
L 236.375207 49.5466 
L 238.371901 49.5466 
L 240.368595 49.5466 
L 242.365289 49.5466 
L 244.361983 49.5466 
L 246.358678 49.5466 
L 248.355372 49.5466 
L 250.352066 49.5466 
L 252.34876 49.5466 
L 254.345455 49.5466 
L 256.342149 49.5466 
L 258.338843 49.5466 
L 260.335537 49.5466 
L 262.332231 49.5466 
L 264.328926 49.5466 
L 266.32562 49.5466 
L 268.322314 49.5466 
L 270.319008 49.5466 
L 272.315702 49.5466 
L 274.312397 49.5466 
L 276.309091 49.5466 
L 278.305785 49.5466 
L 280.302479 49.5466 
L 282.299174 44.443636 
L 284.295868 44.443636 
L 286.292562 44.443636 
L 288.289256 44.443636 
L 290.28595 44.443636 
L 292.282645 44.443636 
L 294.279339 44.443636 
L 296.276033 44.443636 
L 298.272727 44.443636 
L 300.269421 44.443636 
L 302.266116 44.443636 
L 304.26281 44.443636 
L 306.259504 44.443636 
L 308.256198 44.443636 
L 310.252893 44.443636 
L 312.249587 44.443636 
L 314.246281 44.443636 
L 316.242975 44.443636 
L 318.239669 44.443636 
L 320.236364 44.443636 
" clip-path="url(#pae1e50fd27)" style="fill: none; stroke: #a1c9f4; stroke-opacity: 0.8; stroke-width: 2; stroke-linecap: square"/>
   </g>
   <g id="line2d_2">
    <path d="M 122.563636 242.116364 
L 124.560331 231.869406 
L 126.557025 224.222675 
L 128.553719 211.814942 
L 130.550413 207.305309 
L 132.547107 196.917413 
L 134.543802 196.917413 
L 136.540496 187.966198 
L 138.53719 182.717989 
L 140.533884 174.445341 
L 142.530579 174.445341 
L 144.527273 170.824683 
L 146.523967 158.690518 
L 148.520661 156.751519 
L 150.517355 155.357035 
L 152.51405 155.357035 
L 154.510744 152.650648 
L 156.507438 147.457567 
L 158.504132 146.359007 
L 160.500826 145.260446 
L 162.497521 144.161885 
L 164.494215 143.063325 
L 166.490909 141.964764 
L 168.487603 140.994831 
L 170.484298 137.112577 
L 172.480992 129.964283 
L 174.477686 129.926269 
L 176.47438 129.926269 
L 178.471074 129.926269 
L 180.467769 129.333733 
L 182.464463 127.75179 
L 184.461157 126.169847 
L 186.457851 124.587903 
L 188.454545 123.667539 
L 190.45124 123.031462 
L 192.447934 116.745714 
L 194.444628 113.830871 
L 196.441322 109.688199 
L 198.438017 103.842476 
L 200.434711 101.722598 
L 202.431405 101.722556 
L 204.428099 101.523128 
L 206.424793 100.660508 
L 208.421488 99.794989 
L 210.418182 98.929469 
L 212.414876 98.06395 
L 214.41157 97.19843 
L 216.408264 96.33291 
L 218.404959 95.467391 
L 220.401653 94.601871 
L 222.398347 90.542952 
L 224.395041 90.210772 
L 226.391736 88.571659 
L 228.38843 87.019352 
L 230.385124 85.472501 
L 232.381818 83.316525 
L 234.378512 81.160548 
L 236.375207 79.093735 
L 238.371901 77.611404 
L 240.368595 76.122027 
L 242.365289 74.632649 
L 244.361983 73.143272 
L 246.358678 71.653895 
L 248.355372 70.164518 
L 250.352066 68.675141 
L 252.34876 67.185764 
L 254.345455 65.955033 
L 256.342149 65.941971 
L 258.338843 65.941971 
L 260.335537 65.497118 
L 262.332231 63.751613 
L 264.328926 62.078546 
L 266.32562 61.962284 
L 268.322314 61.962284 
L 270.319008 61.962284 
L 272.315702 61.962284 
L 274.312397 61.92399 
L 276.309091 55.479131 
L 278.305785 55.038539 
L 280.302479 54.529305 
L 282.299174 54.020071 
L 284.295868 53.510837 
L 286.292562 53.001602 
L 288.289256 52.492368 
L 290.28595 51.966464 
L 292.282645 51.406025 
L 294.279339 50.845586 
L 296.276033 50.285148 
L 298.272727 49.724709 
L 300.269421 49.16427 
L 302.266116 48.603831 
L 304.26281 48.043393 
L 306.259504 47.482954 
L 308.256198 46.922515 
L 310.252893 46.362076 
L 312.249587 45.801638 
L 314.246281 45.241199 
L 316.242975 44.68076 
L 318.239669 44.443636 
L 320.236364 44.443636 
" clip-path="url(#pae1e50fd27)" style="fill: none; stroke: #ffb482; stroke-opacity: 0.8; stroke-width: 2; stroke-linecap: square"/>
   </g>
   <g id="line2d_3">
    <path d="M 122.563636 242.116364 
L 124.560331 196.735381 
L 126.557025 179.115631 
L 128.553719 166.831521 
L 130.550413 153.689629 
L 132.547107 135.302843 
L 134.543802 126.707792 
L 136.540496 122.369873 
L 138.53719 112.671133 
L 140.533884 112.671133 
L 142.530579 102.313843 
L 144.527273 98.140298 
L 146.523967 90.234182 
L 148.520661 90.234182 
L 150.517355 90.234182 
L 152.51405 85.697435 
L 154.510744 81.161547 
L 156.507438 81.161547 
L 158.504132 81.161547 
L 160.500826 81.161547 
L 162.497521 81.161547 
L 164.494215 81.161547 
L 166.490909 81.161547 
L 168.487603 81.161547 
L 170.484298 81.161547 
L 172.480992 81.161547 
L 174.477686 81.161547 
L 176.47438 81.161547 
L 178.471074 81.161547 
L 180.467769 81.161547 
L 182.464463 81.161547 
L 184.461157 78.730769 
L 186.457851 77.250028 
L 188.454545 77.250028 
L 190.45124 77.250028 
L 192.447934 77.250028 
L 194.444628 77.250028 
L 196.441322 77.250028 
L 198.438017 77.250028 
L 200.434711 73.504072 
L 202.431405 67.987052 
L 204.428099 67.987052 
L 206.424793 67.987052 
L 208.421488 67.987052 
L 210.418182 67.987052 
L 212.414876 67.987052 
L 214.41157 67.987052 
L 216.408264 67.987052 
L 218.404959 67.987052 
L 220.401653 67.987052 
L 222.398347 67.987052 
L 224.395041 67.987052 
L 226.391736 67.987052 
L 228.38843 67.987052 
L 230.385124 67.987052 
L 232.381818 67.987052 
L 234.378512 67.987052 
L 236.375207 67.987052 
L 238.371901 67.987052 
L 240.368595 67.987052 
L 242.365289 67.987052 
L 244.361983 67.987052 
L 246.358678 63.074104 
L 248.355372 62.924917 
L 250.352066 62.924917 
L 252.34876 58.690982 
L 254.345455 58.04586 
L 256.342149 58.04586 
L 258.338843 48.85415 
L 260.335537 48.85415 
L 262.332231 48.85415 
L 264.328926 47.877514 
L 266.32562 44.443636 
L 268.322314 44.443636 
L 270.319008 44.443636 
L 272.315702 44.443636 
L 274.312397 44.443636 
L 276.309091 44.443636 
L 278.305785 44.443636 
L 280.302479 44.443636 
L 282.299174 44.443636 
L 284.295868 44.443636 
L 286.292562 44.443636 
L 288.289256 44.443636 
L 290.28595 44.443636 
L 292.282645 44.443636 
L 294.279339 44.443636 
L 296.276033 44.443636 
L 298.272727 44.443636 
L 300.269421 44.443636 
L 302.266116 44.443636 
L 304.26281 44.443636 
L 306.259504 44.443636 
L 308.256198 44.443636 
L 310.252893 44.443636 
L 312.249587 44.443636 
L 314.246281 44.443636 
L 316.242975 44.443636 
L 318.239669 44.443636 
L 320.236364 44.443636 
" clip-path="url(#pae1e50fd27)" style="fill: none; stroke: #8de5a1; stroke-opacity: 0.8; stroke-width: 2; stroke-linecap: square"/>
   </g>
   <g id="line2d_4">
    <path d="M 122.563636 242.116364 
L 320.236364 44.443636 
" clip-path="url(#pae1e50fd27)" style="fill: none; stroke-dasharray: 5.55,2.4; stroke-dashoffset: 0; stroke: #808080; stroke-width: 1.5"/>
   </g>
   <g id="patch_3">
    <path d="M 112.68 252 
L 112.68 34.56 
" style="fill: none; stroke: #000000; stroke-width: 0.8; stroke-linejoin: miter; stroke-linecap: square"/>
   </g>
   <g id="patch_4">
    <path d="M 330.12 252 
L 330.12 34.56 
" style="fill: none; stroke: #000000; stroke-width: 0.8; stroke-linejoin: miter; stroke-linecap: square"/>
   </g>
   <g id="patch_5">
    <path d="M 112.68 252 
L 330.12 252 
" style="fill: none; stroke: #000000; stroke-width: 0.8; stroke-linejoin: miter; stroke-linecap: square"/>
   </g>
   <g id="patch_6">
    <path d="M 112.68 34.56 
L 330.12 34.56 
" style="fill: none; stroke: #000000; stroke-width: 0.8; stroke-linejoin: miter; stroke-linecap: square"/>
   </g>
   <g id="text_1">
    <!-- ROC on Predicting Flu Positivity -->
    <g transform="translate(122.862188 28.56)scale(0.12 -0.12)">
     <defs>
      <path id="DejaVuSerif-52" d="M 3066 2316 
Q 3284 2256 3442 2114 
Q 3600 1972 3725 1716 
L 4403 331 
L 4972 331 
L 4972 0 
L 3872 0 
L 3144 1484 
Q 2934 1916 2759 2042 
Q 2584 2169 2278 2169 
L 1581 2169 
L 1581 331 
L 2241 331 
L 2241 0 
L 353 0 
L 353 331 
L 947 331 
L 947 4331 
L 353 4331 
L 353 4666 
L 2719 4666 
Q 3400 4666 3770 4341 
Q 4141 4016 4141 3419 
Q 4141 2938 3870 2661 
Q 3600 2384 3066 2316 
z
M 1581 2503 
L 2503 2503 
Q 2975 2503 3200 2726 
Q 3425 2950 3425 3419 
Q 3425 3888 3200 4109 
Q 2975 4331 2503 4331 
L 1581 4331 
L 1581 2503 
z
" transform="scale(0.015625)"/>
      <path id="DejaVuSerif-4f" d="M 2625 244 
Q 3391 244 3781 770 
Q 4172 1297 4172 2328 
Q 4172 3363 3781 3889 
Q 3391 4416 2625 4416 
Q 1856 4416 1465 3889 
Q 1075 3363 1075 2328 
Q 1075 1297 1465 770 
Q 1856 244 2625 244 
z
M 2625 -91 
Q 2150 -91 1751 65 
Q 1353 222 1050 525 
Q 700 875 529 1319 
Q 359 1763 359 2328 
Q 359 2894 529 3339 
Q 700 3784 1050 4134 
Q 1356 4441 1750 4595 
Q 2144 4750 2625 4750 
Q 3641 4750 4266 4084 
Q 4891 3419 4891 2328 
Q 4891 1769 4719 1320 
Q 4547 872 4197 525 
Q 3891 219 3497 64 
Q 3103 -91 2625 -91 
z
" transform="scale(0.015625)"/>
      <path id="DejaVuSerif-43" d="M 4513 1234 
Q 4306 581 3820 245 
Q 3334 -91 2591 -91 
Q 2134 -91 1743 65 
Q 1353 222 1050 525 
Q 700 875 529 1320 
Q 359 1766 359 2328 
Q 359 3416 987 4083 
Q 1616 4750 2644 4750 
Q 3025 4750 3456 4650 
Q 3888 4550 4384 4347 
L 4384 3272 
L 4031 3272 
Q 3916 3859 3567 4137 
Q 3219 4416 2591 4416 
Q 1844 4416 1459 3886 
Q 1075 3356 1075 2328 
Q 1075 1303 1459 773 
Q 1844 244 2591 244 
Q 3113 244 3450 492 
Q 3788 741 3938 1234 
L 4513 1234 
z
" transform="scale(0.015625)"/>
      <path id="DejaVuSerif-20" transform="scale(0.015625)"/>
      <path id="DejaVuSerif-6f" d="M 1925 219 
Q 2388 219 2623 584 
Q 2859 950 2859 1663 
Q 2859 2375 2623 2739 
Q 2388 3103 1925 3103 
Q 1463 3103 1227 2739 
Q 991 2375 991 1663 
Q 991 950 1228 584 
Q 1466 219 1925 219 
z
M 1925 -91 
Q 1200 -91 759 389 
Q 319 869 319 1663 
Q 319 2456 758 2934 
Q 1197 3413 1925 3413 
Q 2653 3413 3092 2934 
Q 3531 2456 3531 1663 
Q 3531 869 3092 389 
Q 2653 -91 1925 -91 
z
" transform="scale(0.015625)"/>
      <path id="DejaVuSerif-6e" d="M 263 0 
L 263 331 
L 781 331 
L 781 2988 
L 231 2988 
L 231 3322 
L 1356 3322 
L 1356 2731 
Q 1516 3069 1770 3241 
Q 2025 3413 2363 3413 
Q 2913 3413 3172 3097 
Q 3431 2781 3431 2113 
L 3431 331 
L 3944 331 
L 3944 0 
L 2356 0 
L 2356 331 
L 2853 331 
L 2853 1931 
Q 2853 2541 2703 2767 
Q 2553 2994 2175 2994 
Q 1775 2994 1565 2701 
Q 1356 2409 1356 1850 
L 1356 331 
L 1856 331 
L 1856 0 
L 263 0 
z
" transform="scale(0.015625)"/>
      <path id="DejaVuSerif-50" d="M 1581 2375 
L 2406 2375 
Q 2872 2375 3115 2626 
Q 3359 2878 3359 3353 
Q 3359 3831 3115 4081 
Q 2872 4331 2406 4331 
L 1581 4331 
L 1581 2375 
z
M 353 0 
L 353 331 
L 947 331 
L 947 4331 
L 353 4331 
L 353 4666 
L 2559 4666 
Q 3259 4666 3668 4311 
Q 4078 3956 4078 3353 
Q 4078 2753 3668 2397 
Q 3259 2041 2559 2041 
L 1581 2041 
L 1581 331 
L 2303 331 
L 2303 0 
L 353 0 
z
" transform="scale(0.015625)"/>
      <path id="DejaVuSerif-72" d="M 3059 3328 
L 3059 2497 
L 2728 2497 
Q 2713 2744 2591 2866 
Q 2469 2988 2234 2988 
Q 1809 2988 1582 2694 
Q 1356 2400 1356 1850 
L 1356 331 
L 2022 331 
L 2022 0 
L 263 0 
L 263 331 
L 781 331 
L 781 2994 
L 231 2994 
L 231 3322 
L 1356 3322 
L 1356 2731 
Q 1525 3078 1790 3245 
Q 2056 3413 2438 3413 
Q 2578 3413 2733 3391 
Q 2888 3369 3059 3328 
z
" transform="scale(0.015625)"/>
      <path id="DejaVuSerif-65" d="M 3469 1600 
L 991 1600 
L 991 1575 
Q 991 903 1244 561 
Q 1497 219 1991 219 
Q 2369 219 2611 417 
Q 2853 616 2950 1006 
L 3413 1006 
Q 3275 459 2904 184 
Q 2534 -91 1931 -91 
Q 1203 -91 761 389 
Q 319 869 319 1663 
Q 319 2450 753 2931 
Q 1188 3413 1894 3413 
Q 2647 3413 3050 2948 
Q 3453 2484 3469 1600 
z
M 2791 1931 
Q 2772 2513 2545 2808 
Q 2319 3103 1894 3103 
Q 1497 3103 1269 2806 
Q 1041 2509 991 1931 
L 2791 1931 
z
" transform="scale(0.015625)"/>
      <path id="DejaVuSerif-64" d="M 3359 331 
L 3909 331 
L 3909 0 
L 2784 0 
L 2784 519 
Q 2616 206 2355 57 
Q 2094 -91 1709 -91 
Q 1097 -91 708 395 
Q 319 881 319 1663 
Q 319 2444 706 2928 
Q 1094 3413 1709 3413 
Q 2094 3413 2355 3264 
Q 2616 3116 2784 2803 
L 2784 4531 
L 2241 4531 
L 2241 4863 
L 3359 4863 
L 3359 331 
z
M 2784 1497 
L 2784 1825 
Q 2784 2422 2554 2737 
Q 2325 3053 1888 3053 
Q 1444 3053 1217 2703 
Q 991 2353 991 1663 
Q 991 975 1217 622 
Q 1444 269 1888 269 
Q 2325 269 2554 583 
Q 2784 897 2784 1497 
z
" transform="scale(0.015625)"/>
      <path id="DejaVuSerif-69" d="M 622 4353 
Q 622 4497 726 4603 
Q 831 4709 978 4709 
Q 1122 4709 1226 4603 
Q 1331 4497 1331 4353 
Q 1331 4206 1228 4103 
Q 1125 4000 978 4000 
Q 831 4000 726 4103 
Q 622 4206 622 4353 
z
M 1356 331 
L 1900 331 
L 1900 0 
L 231 0 
L 231 331 
L 781 331 
L 781 2988 
L 231 2988 
L 231 3322 
L 1356 3322 
L 1356 331 
z
" transform="scale(0.015625)"/>
      <path id="DejaVuSerif-63" d="M 3291 997 
Q 3169 466 2822 187 
Q 2475 -91 1925 -91 
Q 1200 -91 759 389 
Q 319 869 319 1663 
Q 319 2459 759 2936 
Q 1200 3413 1925 3413 
Q 2241 3413 2553 3339 
Q 2866 3266 3181 3116 
L 3181 2266 
L 2847 2266 
Q 2781 2703 2561 2903 
Q 2341 3103 1931 3103 
Q 1466 3103 1228 2742 
Q 991 2381 991 1663 
Q 991 944 1227 581 
Q 1463 219 1931 219 
Q 2303 219 2525 412 
Q 2747 606 2828 997 
L 3291 997 
z
" transform="scale(0.015625)"/>
      <path id="DejaVuSerif-74" d="M 691 2988 
L 184 2988 
L 184 3322 
L 691 3322 
L 691 4353 
L 1269 4353 
L 1269 3322 
L 2350 3322 
L 2350 2988 
L 1269 2988 
L 1269 878 
Q 1269 456 1350 337 
Q 1431 219 1650 219 
Q 1875 219 1978 351 
Q 2081 484 2088 781 
L 2522 781 
Q 2497 328 2275 118 
Q 2053 -91 1600 -91 
Q 1103 -91 897 129 
Q 691 350 691 878 
L 691 2988 
z
" transform="scale(0.015625)"/>
      <path id="DejaVuSerif-67" d="M 3359 2988 
L 3359 72 
Q 3359 -644 2965 -1033 
Q 2572 -1422 1844 -1422 
Q 1516 -1422 1216 -1362 
Q 916 -1303 641 -1184 
L 641 -488 
L 941 -488 
Q 997 -813 1206 -963 
Q 1416 -1113 1806 -1113 
Q 2313 -1113 2548 -827 
Q 2784 -541 2784 72 
L 2784 519 
Q 2616 206 2355 57 
Q 2094 -91 1709 -91 
Q 1097 -91 708 395 
Q 319 881 319 1663 
Q 319 2444 706 2928 
Q 1094 3413 1709 3413 
Q 2094 3413 2355 3264 
Q 2616 3116 2784 2803 
L 2784 3322 
L 3909 3322 
L 3909 2988 
L 3359 2988 
z
M 2784 1825 
Q 2784 2422 2554 2737 
Q 2325 3053 1888 3053 
Q 1444 3053 1217 2703 
Q 991 2353 991 1663 
Q 991 975 1217 622 
Q 1444 269 1888 269 
Q 2325 269 2554 583 
Q 2784 897 2784 1497 
L 2784 1825 
z
" transform="scale(0.015625)"/>
      <path id="DejaVuSerif-46" d="M 353 0 
L 353 331 
L 947 331 
L 947 4331 
L 353 4331 
L 353 4666 
L 4172 4666 
L 4172 3628 
L 3788 3628 
L 3788 4281 
L 1581 4281 
L 1581 2719 
L 3175 2719 
L 3175 3303 
L 3559 3303 
L 3559 1753 
L 3175 1753 
L 3175 2338 
L 1581 2338 
L 1581 331 
L 2328 331 
L 2328 0 
L 353 0 
z
" transform="scale(0.015625)"/>
      <path id="DejaVuSerif-6c" d="M 1313 331 
L 1856 331 
L 1856 0 
L 184 0 
L 184 331 
L 738 331 
L 738 4531 
L 184 4531 
L 184 4863 
L 1313 4863 
L 1313 331 
z
" transform="scale(0.015625)"/>
      <path id="DejaVuSerif-75" d="M 2266 3322 
L 3341 3322 
L 3341 331 
L 3884 331 
L 3884 0 
L 2766 0 
L 2766 588 
Q 2606 256 2353 82 
Q 2100 -91 1766 -91 
Q 1213 -91 952 223 
Q 691 538 691 1209 
L 691 2988 
L 172 2988 
L 172 3322 
L 1269 3322 
L 1269 1388 
Q 1269 781 1417 556 
Q 1566 331 1947 331 
Q 2347 331 2556 625 
Q 2766 919 2766 1478 
L 2766 2988 
L 2266 2988 
L 2266 3322 
z
" transform="scale(0.015625)"/>
      <path id="DejaVuSerif-73" d="M 359 184 
L 359 959 
L 691 959 
Q 703 588 923 403 
Q 1144 219 1575 219 
Q 1963 219 2166 364 
Q 2369 509 2369 788 
Q 2369 1006 2220 1140 
Q 2072 1275 1594 1428 
L 1178 1569 
Q 750 1706 558 1912 
Q 366 2119 366 2438 
Q 366 2894 700 3153 
Q 1034 3413 1625 3413 
Q 1888 3413 2178 3344 
Q 2469 3275 2778 3144 
L 2778 2419 
L 2447 2419 
Q 2434 2741 2221 2922 
Q 2009 3103 1644 3103 
Q 1281 3103 1095 2975 
Q 909 2847 909 2591 
Q 909 2381 1050 2254 
Q 1191 2128 1613 1997 
L 2069 1856 
Q 2541 1709 2748 1489 
Q 2956 1269 2956 922 
Q 2956 450 2595 179 
Q 2234 -91 1600 -91 
Q 1278 -91 972 -22 
Q 666 47 359 184 
z
" transform="scale(0.015625)"/>
      <path id="DejaVuSerif-76" d="M 1581 0 
L 359 2988 
L -19 2988 
L -19 3322 
L 1509 3322 
L 1509 2988 
L 978 2988 
L 1913 703 
L 2847 2988 
L 2350 2988 
L 2350 3322 
L 3597 3322 
L 3597 2988 
L 3225 2988 
L 2003 0 
L 1581 0 
z
" transform="scale(0.015625)"/>
      <path id="DejaVuSerif-79" d="M 1381 -609 
L 1600 -56 
L 359 2988 
L -19 2988 
L -19 3322 
L 1509 3322 
L 1509 2988 
L 978 2988 
L 1913 703 
L 2847 2988 
L 2350 2988 
L 2350 3322 
L 3597 3322 
L 3597 2988 
L 3225 2988 
L 1703 -750 
Q 1547 -1138 1356 -1280 
Q 1166 -1422 819 -1422 
Q 672 -1422 517 -1397 
Q 363 -1372 206 -1325 
L 206 -691 
L 500 -691 
Q 519 -903 608 -995 
Q 697 -1088 884 -1088 
Q 1056 -1088 1161 -992 
Q 1266 -897 1381 -609 
z
" transform="scale(0.015625)"/>
     </defs>
     <use xlink:href="#DejaVuSerif-52"/>
     <use xlink:href="#DejaVuSerif-4f" x="75.292969"/>
     <use xlink:href="#DejaVuSerif-43" x="157.275391"/>
     <use xlink:href="#DejaVuSerif-20" x="233.789062"/>
     <use xlink:href="#DejaVuSerif-6f" x="265.576172"/>
     <use xlink:href="#DejaVuSerif-6e" x="325.78125"/>
     <use xlink:href="#DejaVuSerif-20" x="390.185547"/>
     <use xlink:href="#DejaVuSerif-50" x="421.972656"/>
     <use xlink:href="#DejaVuSerif-72" x="489.257812"/>
     <use xlink:href="#DejaVuSerif-65" x="537.060547"/>
     <use xlink:href="#DejaVuSerif-64" x="596.240234"/>
     <use xlink:href="#DejaVuSerif-69" x="660.253906"/>
     <use xlink:href="#DejaVuSerif-63" x="692.236328"/>
     <use xlink:href="#DejaVuSerif-74" x="748.242188"/>
     <use xlink:href="#DejaVuSerif-69" x="788.427734"/>
     <use xlink:href="#DejaVuSerif-6e" x="820.410156"/>
     <use xlink:href="#DejaVuSerif-67" x="884.814453"/>
     <use xlink:href="#DejaVuSerif-20" x="948.828125"/>
     <use xlink:href="#DejaVuSerif-46" x="980.615234"/>
     <use xlink:href="#DejaVuSerif-6c" x="1050"/>
     <use xlink:href="#DejaVuSerif-75" x="1081.982422"/>
     <use xlink:href="#DejaVuSerif-20" x="1146.386719"/>
     <use xlink:href="#DejaVuSerif-50" x="1178.173828"/>
     <use xlink:href="#DejaVuSerif-6f" x="1241.458984"/>
     <use xlink:href="#DejaVuSerif-73" x="1301.664062"/>
     <use xlink:href="#DejaVuSerif-69" x="1352.982422"/>
     <use xlink:href="#DejaVuSerif-74" x="1384.964844"/>
     <use xlink:href="#DejaVuSerif-69" x="1425.150391"/>
     <use xlink:href="#DejaVuSerif-76" x="1457.132812"/>
     <use xlink:href="#DejaVuSerif-69" x="1513.626953"/>
     <use xlink:href="#DejaVuSerif-74" x="1545.609375"/>
     <use xlink:href="#DejaVuSerif-79" x="1585.794922"/>
    </g>
   </g>
   <g id="legend_1">
    <g id="patch_7">
     <path d="M 236.745 247 
L 323.12 247 
Q 325.12 247 325.12 245 
L 325.12 201.965625 
Q 325.12 199.965625 323.12 199.965625 
L 236.745 199.965625 
Q 234.745 199.965625 234.745 201.965625 
L 234.745 245 
Q 234.745 247 236.745 247 
z
" style="fill: #ffffff; opacity: 0.8; stroke: #cccccc; stroke-linejoin: miter"/>
    </g>
    <g id="line2d_5">
     <path d="M 238.745 208.064063 
L 248.745 208.064063 
L 258.745 208.064063 
" style="fill: none; stroke: #a1c9f4; stroke-opacity: 0.8; stroke-width: 2; stroke-linecap: square"/>
    </g>
    <g id="text_2">
     <!-- Our Model -->
     <g transform="translate(266.745 211.564063)scale(0.1 -0.1)">
      <defs>
       <path id="DejaVuSerif-4d" d="M 353 0 
L 353 331 
L 947 331 
L 947 4331 
L 319 4331 
L 319 4666 
L 1678 4666 
L 3316 1344 
L 4953 4666 
L 6228 4666 
L 6228 4331 
L 5606 4331 
L 5606 331 
L 6203 331 
L 6203 0 
L 4378 0 
L 4378 331 
L 4972 331 
L 4972 3938 
L 3372 684 
L 2931 684 
L 1331 3938 
L 1331 331 
L 1925 331 
L 1925 0 
L 353 0 
z
" transform="scale(0.015625)"/>
      </defs>
      <use xlink:href="#DejaVuSerif-4f"/>
      <use xlink:href="#DejaVuSerif-75" x="81.982422"/>
      <use xlink:href="#DejaVuSerif-72" x="146.386719"/>
      <use xlink:href="#DejaVuSerif-20" x="194.189453"/>
      <use xlink:href="#DejaVuSerif-4d" x="225.976562"/>
      <use xlink:href="#DejaVuSerif-6f" x="328.369141"/>
      <use xlink:href="#DejaVuSerif-64" x="388.574219"/>
      <use xlink:href="#DejaVuSerif-65" x="452.587891"/>
      <use xlink:href="#DejaVuSerif-6c" x="511.767578"/>
     </g>
    </g>
    <g id="line2d_6">
     <path d="M 238.745 222.742188 
L 248.745 222.742188 
L 258.745 222.742188 
" style="fill: none; stroke: #ffb482; stroke-opacity: 0.8; stroke-width: 2; stroke-linecap: square"/>
    </g>
    <g id="text_3">
     <!-- XGBoost -->
     <g transform="translate(266.745 226.242188)scale(0.1 -0.1)">
      <defs>
       <path id="DejaVuSerif-58" d="M 2119 1997 
L 978 331 
L 1581 331 
L 1581 0 
L 38 0 
L 38 331 
L 575 331 
L 1919 2291 
L 556 4331 
L 56 4331 
L 56 4666 
L 1906 4666 
L 1906 4331 
L 1356 4331 
L 2356 2828 
L 3384 4331 
L 2784 4331 
L 2784 4666 
L 4313 4666 
L 4313 4331 
L 3788 4331 
L 2553 2534 
L 4025 331 
L 4525 331 
L 4525 0 
L 2675 0 
L 2675 331 
L 3231 331 
L 2119 1997 
z
" transform="scale(0.015625)"/>
       <path id="DejaVuSerif-47" d="M 4097 3272 
Q 3988 3856 3641 4136 
Q 3294 4416 2675 4416 
Q 1869 4416 1472 3897 
Q 1075 3378 1075 2328 
Q 1075 1300 1484 772 
Q 1894 244 2688 244 
Q 3041 244 3362 331 
Q 3684 419 3975 594 
L 3975 1797 
L 3097 1797 
L 3097 2131 
L 4609 2131 
L 4609 391 
Q 4194 150 3714 29 
Q 3234 -91 2688 -91 
Q 1631 -91 995 570 
Q 359 1231 359 2328 
Q 359 3434 996 4092 
Q 1634 4750 2713 4750 
Q 3113 4750 3539 4658 
Q 3966 4566 4447 4378 
L 4447 3272 
L 4097 3272 
z
" transform="scale(0.015625)"/>
       <path id="DejaVuSerif-42" d="M 1581 331 
L 2516 331 
Q 3078 331 3337 575 
Q 3597 819 3597 1350 
Q 3597 1878 3339 2120 
Q 3081 2363 2516 2363 
L 1581 2363 
L 1581 331 
z
M 1581 2694 
L 2375 2694 
Q 2888 2694 3123 2891 
Q 3359 3088 3359 3513 
Q 3359 3941 3123 4136 
Q 2888 4331 2375 4331 
L 1581 4331 
L 1581 2694 
z
M 353 0 
L 353 331 
L 947 331 
L 947 4331 
L 353 4331 
L 353 4666 
L 2656 4666 
Q 3363 4666 3720 4377 
Q 4078 4088 4078 3513 
Q 4078 3097 3829 2850 
Q 3581 2603 3103 2547 
Q 3697 2472 4005 2167 
Q 4313 1863 4313 1350 
Q 4313 656 3875 328 
Q 3438 0 2509 0 
L 353 0 
z
" transform="scale(0.015625)"/>
      </defs>
      <use xlink:href="#DejaVuSerif-58"/>
      <use xlink:href="#DejaVuSerif-47" x="71.191406"/>
      <use xlink:href="#DejaVuSerif-42" x="151.074219"/>
      <use xlink:href="#DejaVuSerif-6f" x="224.560547"/>
      <use xlink:href="#DejaVuSerif-6f" x="284.765625"/>
      <use xlink:href="#DejaVuSerif-73" x="344.970703"/>
      <use xlink:href="#DejaVuSerif-74" x="396.289062"/>
     </g>
    </g>
    <g id="line2d_7">
     <path d="M 238.745 237.420313 
L 248.745 237.420313 
L 258.745 237.420313 
" style="fill: none; stroke: #8de5a1; stroke-opacity: 0.8; stroke-width: 2; stroke-linecap: square"/>
    </g>
    <g id="text_4">
     <!-- CNN -->
     <g transform="translate(266.745 240.920313)scale(0.1 -0.1)">
      <defs>
       <path id="DejaVuSerif-4e" d="M 313 0 
L 313 331 
L 941 331 
L 941 4331 
L 313 4331 
L 313 4666 
L 1509 4666 
L 4306 984 
L 4306 4331 
L 3681 4331 
L 3681 4666 
L 5319 4666 
L 5319 4331 
L 4691 4331 
L 4691 -91 
L 4313 -91 
L 1325 3841 
L 1325 331 
L 1953 331 
L 1953 0 
L 313 0 
z
" transform="scale(0.015625)"/>
      </defs>
      <use xlink:href="#DejaVuSerif-43"/>
      <use xlink:href="#DejaVuSerif-4e" x="76.513672"/>
      <use xlink:href="#DejaVuSerif-4e" x="164.013672"/>
     </g>
    </g>
   </g>
  </g>
 </g>
 <defs>
  <clipPath id="pae1e50fd27">
   <rect x="112.68" y="34.56" width="217.44" height="217.44"/>
  </clipPath>
 </defs>
</svg>
