<?xml version="1.0" encoding="utf-8" standalone="no"?>
<!DOCTYPE svg PUBLIC "-//W3C//DTD SVG 1.1//EN"
  "http://www.w3.org/Graphics/SVG/1.1/DTD/svg11.dtd">
<svg xmlns:xlink="http://www.w3.org/1999/xlink" width="432pt" height="288pt" viewBox="0 0 432 288" xmlns="http://www.w3.org/2000/svg" version="1.1">
 <metadata>
  <rdf:RDF xmlns:dc="http://purl.org/dc/elements/1.1/" xmlns:cc="http://creativecommons.org/ns#" xmlns:rdf="http://www.w3.org/1999/02/22-rdf-syntax-ns#">
   <cc:Work>
    <dc:type rdf:resource="http://purl.org/dc/dcmitype/StillImage"/>
    <dc:date>2022-02-08T21:08:21.435254</dc:date>
    <dc:format>image/svg+xml</dc:format>
    <dc:creator>
     <cc:Agent>
      <dc:title>Matplotlib v3.5.1, https://matplotlib.org/</dc:title>
     </cc:Agent>
    </dc:creator>
   </cc:Work>
  </rdf:RDF>
 </metadata>
 <defs>
  <style type="text/css">*{stroke-linejoin: round; stroke-linecap: butt}</style>
 </defs>
 <g id="figure_1">
  <g id="patch_1">
   <path d="M 0 288 
L 432 288 
L 432 0 
L 0 0 
L 0 288 
z
" style="fill: none"/>
  </g>
  <g id="axes_1">
   <g id="patch_2">
    <path d="M 112.68 252 
L 330.12 252 
L 330.12 34.56 
L 112.68 34.56 
z
" style="fill: #ffffff"/>
   </g>
   <g id="PolyCollection_1">
    <defs>
     <path id="ma90cca7a5a" d="M 122.563636 -45.883636 
L 122.563636 -45.883636 
L 124.560331 -81.606329 
L 126.557025 -90.9314 
L 128.553719 -100.315728 
L 130.550413 -124.817373 
L 132.547107 -128.200333 
L 134.543802 -128.435416 
L 136.540496 -131.766555 
L 138.53719 -131.766555 
L 140.533884 -134.991674 
L 142.530579 -143.629967 
L 144.527273 -143.629967 
L 146.523967 -143.629967 
L 148.520661 -148.879105 
L 150.517355 -156.711009 
L 152.51405 -173.67892 
L 154.510744 -173.67892 
L 156.507438 -174.515532 
L 158.504132 -179.270441 
L 160.500826 -180.331512 
L 162.497521 -185.284706 
L 164.494215 -185.284706 
L 166.490909 -185.284706 
L 168.487603 -185.284706 
L 170.484298 -185.284706 
L 172.480992 -191.235796 
L 174.477686 -191.235796 
L 176.47438 -196.561051 
L 178.471074 -203.843656 
L 180.467769 -203.848791 
L 182.464463 -203.848791 
L 184.461157 -203.848791 
L 186.457851 -210.946562 
L 188.454545 -215.764385 
L 190.45124 -215.764385 
L 192.447934 -215.764385 
L 194.444628 -215.764385 
L 196.441322 -215.764385 
L 198.438017 -215.764385 
L 200.434711 -215.764385 
L 202.431405 -215.764385 
L 204.428099 -215.764385 
L 206.424793 -215.764385 
L 208.421488 -215.764385 
L 210.418182 -215.764385 
L 212.414876 -215.764385 
L 214.41157 -215.764385 
L 216.408264 -221.440509 
L 218.404959 -223.3164 
L 220.401653 -223.3164 
L 222.398347 -223.3164 
L 224.395041 -223.3164 
L 226.391736 -223.561057 
L 228.38843 -229.856685 
L 230.385124 -229.856685 
L 232.381818 -229.856685 
L 234.378512 -229.856685 
L 236.375207 -229.856685 
L 238.371901 -229.856685 
L 240.368595 -229.856685 
L 242.365289 -229.856685 
L 244.361983 -229.856685 
L 246.358678 -229.856685 
L 248.355372 -229.856685 
L 250.352066 -229.856685 
L 252.34876 -229.856685 
L 254.345455 -229.856685 
L 256.342149 -229.856685 
L 258.338843 -229.856685 
L 260.335537 -229.856685 
L 262.332231 -229.856685 
L 264.328926 -229.856685 
L 266.32562 -229.856685 
L 268.322314 -229.856685 
L 270.319008 -229.856685 
L 272.315702 -229.856685 
L 274.312397 -229.856685 
L 276.309091 -229.856685 
L 278.305785 -229.856685 
L 280.302479 -229.856685 
L 282.299174 -243.556364 
L 284.295868 -243.556364 
L 286.292562 -243.556364 
L 288.289256 -243.556364 
L 290.28595 -243.556364 
L 292.282645 -243.556364 
L 294.279339 -243.556364 
L 296.276033 -243.556364 
L 298.272727 -243.556364 
L 300.269421 -243.556364 
L 302.266116 -243.556364 
L 304.26281 -243.556364 
L 306.259504 -243.556364 
L 308.256198 -243.556364 
L 310.252893 -243.556364 
L 312.249587 -243.556364 
L 314.246281 -243.556364 
L 316.242975 -243.556364 
L 318.239669 -243.556364 
L 320.236364 -243.556364 
L 320.236364 -243.556364 
L 320.236364 -243.556364 
L 318.239669 -243.556364 
L 316.242975 -243.556364 
L 314.246281 -243.556364 
L 312.249587 -243.556364 
L 310.252893 -243.556364 
L 308.256198 -243.556364 
L 306.259504 -243.556364 
L 304.26281 -243.556364 
L 302.266116 -243.556364 
L 300.269421 -243.556364 
L 298.272727 -243.556364 
L 296.276033 -243.556364 
L 294.279339 -243.556364 
L 292.282645 -243.556364 
L 290.28595 -243.556364 
L 288.289256 -243.556364 
L 286.292562 -243.556364 
L 284.295868 -243.556364 
L 282.299174 -243.556364 
L 280.302479 -243.556364 
L 278.305785 -243.556364 
L 276.309091 -243.556364 
L 274.312397 -243.556364 
L 272.315702 -243.556364 
L 270.319008 -243.556364 
L 268.322314 -243.556364 
L 266.32562 -243.556364 
L 264.328926 -243.556364 
L 262.332231 -243.556364 
L 260.335537 -243.556364 
L 258.338843 -243.556364 
L 256.342149 -243.556364 
L 254.345455 -243.556364 
L 252.34876 -243.556364 
L 250.352066 -243.556364 
L 248.355372 -243.556364 
L 246.358678 -243.556364 
L 244.361983 -243.556364 
L 242.365289 -243.556364 
L 240.368595 -243.556364 
L 238.371901 -243.556364 
L 236.375207 -243.556364 
L 234.378512 -243.556364 
L 232.381818 -243.556364 
L 230.385124 -243.556364 
L 228.38843 -243.556364 
L 226.391736 -243.556364 
L 224.395041 -243.556364 
L 222.398347 -243.556364 
L 220.401653 -243.556364 
L 218.404959 -243.556364 
L 216.408264 -243.556364 
L 214.41157 -243.556364 
L 212.414876 -243.556364 
L 210.418182 -243.556364 
L 208.421488 -243.556364 
L 206.424793 -243.556364 
L 204.428099 -243.556364 
L 202.431405 -243.556364 
L 200.434711 -243.556364 
L 198.438017 -243.556364 
L 196.441322 -243.556364 
L 194.444628 -243.556364 
L 192.447934 -243.556364 
L 190.45124 -243.556364 
L 188.454545 -243.556364 
L 186.457851 -243.556364 
L 184.461157 -241.224198 
L 182.464463 -241.224198 
L 180.467769 -241.224198 
L 178.471074 -241.132908 
L 176.47438 -238.945877 
L 174.477686 -235.991235 
L 172.480992 -235.991235 
L 170.484298 -233.367537 
L 168.487603 -233.367537 
L 166.490909 -233.367537 
L 164.494215 -233.367537 
L 162.497521 -233.367537 
L 160.500826 -230.360414 
L 158.504132 -229.288521 
L 156.507438 -228.463134 
L 154.510744 -226.986522 
L 152.51405 -226.986522 
L 150.517355 -211.210439 
L 148.520661 -203.925534 
L 146.523967 -200.248202 
L 144.527273 -200.248202 
L 142.530579 -200.248202 
L 140.533884 -194.010304 
L 138.53719 -193.299088 
L 136.540496 -193.299088 
L 134.543802 -188.811175 
L 132.547107 -188.094741 
L 130.550413 -182.560104 
L 128.553719 -157.811814 
L 126.557025 -145.422575 
L 124.560331 -136.160982 
L 122.563636 -45.883636 
z
" style="stroke: #a1c9f4; stroke-opacity: 0.2"/>
    </defs>
    <g clip-path="url(#pcf96bb08cb)">
     <use xlink:href="#ma90cca7a5a" x="0" y="288" style="fill: #a1c9f4; fill-opacity: 0.2; stroke: #a1c9f4; stroke-opacity: 0.2"/>
    </g>
   </g>
   <g id="PolyCollection_2">
    <defs>
     <path id="m985730b4f1" d="M 122.563636 -45.883636 
L 122.563636 -45.883636 
L 124.560331 -45.883636 
L 126.557025 -49.131421 
L 128.553719 -58.825527 
L 130.550413 -63.359698 
L 132.547107 -71.02333 
L 134.543802 -71.02333 
L 136.540496 -78.356817 
L 138.53719 -84.196158 
L 140.533884 -90.307432 
L 142.530579 -90.307432 
L 144.527273 -93.839118 
L 146.523967 -102.607293 
L 148.520661 -105.447764 
L 150.517355 -107.158302 
L 152.51405 -107.158302 
L 154.510744 -109.592299 
L 156.507438 -113.155495 
L 158.504132 -114.264137 
L 160.500826 -115.294036 
L 162.497521 -116.245227 
L 164.494215 -117.118447 
L 166.490909 -117.915103 
L 168.487603 -118.523586 
L 170.484298 -120.27215 
L 172.480992 -126.197251 
L 174.477686 -126.409501 
L 176.47438 -126.409501 
L 178.471074 -126.409501 
L 180.467769 -127.304835 
L 182.464463 -129.481272 
L 184.461157 -131.475948 
L 186.457851 -133.283817 
L 188.454545 -134.200404 
L 190.45124 -135.117282 
L 192.447934 -142.656564 
L 194.444628 -145.75921 
L 196.441322 -150.802832 
L 198.438017 -156.164481 
L 200.434711 -157.798422 
L 202.431405 -157.798422 
L 204.428099 -158.09708 
L 206.424793 -159.409992 
L 208.421488 -160.685497 
L 210.418182 -161.920926 
L 212.414876 -163.114251 
L 214.41157 -164.263519 
L 216.408264 -165.366896 
L 218.404959 -166.42271 
L 220.401653 -167.429487 
L 222.398347 -172.518529 
L 224.395041 -173.17777 
L 226.391736 -175.348246 
L 228.38843 -176.950644 
L 230.385124 -178.869968 
L 232.381818 -181.40621 
L 234.378512 -183.620969 
L 236.375207 -185.605305 
L 238.371901 -188.094475 
L 240.368595 -190.530676 
L 242.365289 -192.892914 
L 244.361983 -195.172448 
L 246.358678 -197.360308 
L 248.355372 -199.447686 
L 250.352066 -201.426442 
L 252.34876 -203.28968 
L 254.345455 -204.74907 
L 256.342149 -204.752225 
L 258.338843 -204.752225 
L 260.335537 -205.284986 
L 262.332231 -207.007764 
L 264.328926 -208.254427 
L 266.32562 -208.282968 
L 268.322314 -208.282968 
L 270.319008 -208.282968 
L 272.315702 -208.282968 
L 274.312397 -208.524367 
L 276.309091 -221.210608 
L 278.305785 -222.264617 
L 280.302479 -223.355157 
L 282.299174 -224.327491 
L 284.295868 -225.167368 
L 286.292562 -225.86394 
L 288.289256 -226.411731 
L 290.28595 -227.07126 
L 292.282645 -228.298939 
L 294.279339 -229.526617 
L 296.276033 -230.754294 
L 298.272727 -231.981968 
L 300.269421 -233.20964 
L 302.266116 -234.437307 
L 304.26281 -235.664969 
L 306.259504 -236.892622 
L 308.256198 -238.12026 
L 310.252893 -239.34787 
L 312.249587 -240.575416 
L 314.246281 -241.802769 
L 316.242975 -243.028588 
L 318.239669 -243.556364 
L 320.236364 -243.556364 
L 320.236364 -243.556364 
L 320.236364 -243.556364 
L 318.239669 -243.556364 
L 316.242975 -243.556364 
L 314.246281 -243.556364 
L 312.249587 -243.556364 
L 310.252893 -243.556364 
L 308.256198 -243.556364 
L 306.259504 -243.556364 
L 304.26281 -243.556364 
L 302.266116 -243.556364 
L 300.269421 -243.556364 
L 298.272727 -243.556364 
L 296.276033 -243.556364 
L 294.279339 -243.556364 
L 292.282645 -243.556364 
L 290.28595 -243.556364 
L 288.289256 -243.556364 
L 286.292562 -243.556364 
L 284.295868 -243.556364 
L 282.299174 -243.556364 
L 280.302479 -243.556364 
L 278.305785 -243.556364 
L 276.309091 -243.556364 
L 274.312397 -242.243467 
L 272.315702 -242.362083 
L 270.319008 -242.362083 
L 268.322314 -242.362083 
L 266.32562 -242.362083 
L 264.328926 -242.237298 
L 262.332231 -240.694967 
L 260.335537 -239.538184 
L 258.338843 -239.329804 
L 256.342149 -239.329804 
L 254.345455 -239.31137 
L 252.34876 -238.117153 
L 250.352066 -236.759569 
L 248.355372 -235.517502 
L 246.358678 -234.384057 
L 244.361983 -233.351095 
L 242.365289 -232.409806 
L 240.368595 -231.551222 
L 238.371901 -230.7666 
L 236.375207 -230.016422 
L 234.378512 -228.059874 
L 232.381818 -226.215006 
L 230.385124 -224.69162 
L 228.38843 -223.674188 
L 226.391736 -221.811545 
L 224.395041 -220.336398 
L 222.398347 -220.227856 
L 220.401653 -216.461027 
L 218.404959 -215.86208 
L 216.408264 -215.31217 
L 214.41157 -214.809823 
L 212.414876 -214.353367 
L 210.418182 -213.940967 
L 208.421488 -213.570673 
L 206.424793 -213.240454 
L 204.428099 -212.948609 
L 202.431405 -212.873944 
L 200.434711 -212.873944 
L 198.438017 -210.321067 
L 196.441322 -205.855443 
L 194.444628 -203.209358 
L 192.447934 -199.692301 
L 190.45124 -192.567849 
L 188.454545 -191.869476 
L 186.457851 -190.848645 
L 184.461157 -189.199816 
L 182.464463 -187.737794 
L 180.467769 -186.457534 
L 178.471074 -186.008649 
L 176.47438 -186.008649 
L 174.477686 -186.008649 
L 172.480992 -186.079704 
L 170.484298 -176.973327 
L 168.487603 -172.479552 
L 166.490909 -171.307182 
L 164.494215 -170.036245 
L 162.497521 -168.841872 
L 160.500826 -167.72547 
L 158.504132 -166.687777 
L 156.507438 -165.728826 
L 154.510744 -159.757136 
L 152.51405 -157.421593 
L 150.517355 -157.421593 
L 148.520661 -155.597972 
L 146.523967 -154.166408 
L 144.527273 -144.836619 
L 142.530579 -140.728717 
L 140.533884 -140.728717 
L 138.53719 -132.462061 
L 136.540496 -126.09683 
L 134.543802 -115.879719 
L 132.547107 -115.879719 
L 130.550413 -102.225678 
L 128.553719 -95.176329 
L 126.557025 -81.138851 
L 124.560331 -69.424231 
L 122.563636 -45.883636 
z
" style="stroke: #ffb482; stroke-opacity: 0.2"/>
    </defs>
    <g clip-path="url(#pcf96bb08cb)">
     <use xlink:href="#m985730b4f1" x="0" y="288" style="fill: #ffb482; fill-opacity: 0.2; stroke: #ffb482; stroke-opacity: 0.2"/>
    </g>
   </g>
   <g id="matplotlib.axis_1"/>
   <g id="matplotlib.axis_2"/>
   <g id="line2d_1">
    <path d="M 122.563636 242.116364 
L 124.560331 179.116344 
L 126.557025 169.823012 
L 128.553719 158.936229 
L 130.550413 134.311262 
L 132.547107 129.852463 
L 134.543802 129.376704 
L 136.540496 125.467178 
L 138.53719 125.467178 
L 140.533884 123.499011 
L 142.530579 116.060915 
L 144.527273 116.060915 
L 146.523967 116.060915 
L 148.520661 111.59768 
L 150.517355 104.039276 
L 152.51405 87.667279 
L 154.510744 87.667279 
L 156.507438 86.510667 
L 158.504132 83.720519 
L 160.500826 82.654037 
L 162.497521 78.673879 
L 164.494215 78.673879 
L 166.490909 78.673879 
L 168.487603 78.673879 
L 170.484298 78.673879 
L 172.480992 74.386485 
L 174.477686 74.386485 
L 176.47438 70.246536 
L 178.471074 65.511718 
L 180.467769 65.463505 
L 182.464463 65.463505 
L 184.461157 65.463505 
L 186.457851 59.250566 
L 188.454545 57.036147 
L 190.45124 57.036147 
L 192.447934 57.036147 
L 194.444628 57.036147 
L 196.441322 57.036147 
L 198.438017 57.036147 
L 200.434711 57.036147 
L 202.431405 57.036147 
L 204.428099 57.036147 
L 206.424793 57.036147 
L 208.421488 57.036147 
L 210.418182 57.036147 
L 212.414876 57.036147 
L 214.41157 57.036147 
L 216.408264 53.399979 
L 218.404959 52.728589 
L 220.401653 52.728589 
L 222.398347 52.728589 
L 224.395041 52.728589 
L 226.391736 52.488557 
L 228.38843 48.721403 
L 230.385124 48.721403 
L 232.381818 48.721403 
L 234.378512 48.721403 
L 236.375207 48.721403 
L 238.371901 48.721403 
L 240.368595 48.721403 
L 242.365289 48.721403 
L 244.361983 48.721403 
L 246.358678 48.721403 
L 248.355372 48.721403 
L 250.352066 48.721403 
L 252.34876 48.721403 
L 254.345455 48.721403 
L 256.342149 48.721403 
L 258.338843 48.721403 
L 260.335537 48.721403 
L 262.332231 48.721403 
L 264.328926 48.721403 
L 266.32562 48.721403 
L 268.322314 48.721403 
L 270.319008 48.721403 
L 272.315702 48.721403 
L 274.312397 48.721403 
L 276.309091 48.721403 
L 278.305785 48.721403 
L 280.302479 48.721403 
L 282.299174 44.443636 
L 284.295868 44.443636 
L 286.292562 44.443636 
L 288.289256 44.443636 
L 290.28595 44.443636 
L 292.282645 44.443636 
L 294.279339 44.443636 
L 296.276033 44.443636 
L 298.272727 44.443636 
L 300.269421 44.443636 
L 302.266116 44.443636 
L 304.26281 44.443636 
L 306.259504 44.443636 
L 308.256198 44.443636 
L 310.252893 44.443636 
L 312.249587 44.443636 
L 314.246281 44.443636 
L 316.242975 44.443636 
L 318.239669 44.443636 
L 320.236364 44.443636 
" clip-path="url(#pcf96bb08cb)" style="fill: none; stroke: #a1c9f4; stroke-opacity: 0.8; stroke-width: 1.5; stroke-linecap: square"/>
   </g>
   <g id="line2d_2">
    <path d="M 122.563636 242.116364 
L 124.560331 230.599933 
L 126.557025 222.864864 
L 128.553719 210.999072 
L 130.550413 205.207312 
L 132.547107 194.548476 
L 134.543802 194.548476 
L 136.540496 185.773176 
L 138.53719 179.67089 
L 140.533884 172.481926 
L 142.530579 172.481926 
L 144.527273 168.662131 
L 146.523967 159.61315 
L 148.520661 157.477132 
L 150.517355 155.710052 
L 152.51405 155.710052 
L 154.510744 153.325282 
L 156.507438 148.55784 
L 158.504132 147.524043 
L 160.500826 146.490247 
L 162.497521 145.45645 
L 164.494215 144.422654 
L 166.490909 143.388857 
L 168.487603 142.498431 
L 170.484298 139.377262 
L 172.480992 131.861523 
L 174.477686 131.790925 
L 176.47438 131.790925 
L 178.471074 131.790925 
L 180.467769 131.118815 
L 182.464463 129.390467 
L 184.461157 127.662118 
L 186.457851 125.933769 
L 188.454545 124.96506 
L 190.45124 124.157435 
L 192.447934 116.825567 
L 194.444628 113.515716 
L 196.441322 109.670863 
L 198.438017 104.757226 
L 200.434711 102.663817 
L 202.431405 102.663817 
L 204.428099 102.477156 
L 206.424793 101.674777 
L 208.421488 100.871915 
L 210.418182 100.069053 
L 212.414876 99.266191 
L 214.41157 98.463329 
L 216.408264 97.660467 
L 218.404959 96.857605 
L 220.401653 96.054743 
L 222.398347 91.626807 
L 224.395041 91.242916 
L 226.391736 89.420105 
L 228.38843 87.687584 
L 230.385124 86.219206 
L 232.381818 84.189392 
L 234.378512 82.159578 
L 236.375207 80.189137 
L 238.371901 78.569463 
L 240.368595 76.959051 
L 242.365289 75.34864 
L 244.361983 73.738229 
L 246.358678 72.127817 
L 248.355372 70.517406 
L 250.352066 68.906995 
L 252.34876 67.296583 
L 254.345455 65.96978 
L 256.342149 65.958985 
L 258.338843 65.958985 
L 260.335537 65.588415 
L 262.332231 64.148635 
L 264.328926 62.754137 
L 266.32562 62.677475 
L 268.322314 62.677475 
L 270.319008 62.677475 
L 272.315702 62.677475 
L 274.312397 62.616083 
L 276.309091 55.034561 
L 278.305785 54.537203 
L 280.302479 53.966815 
L 282.299174 53.396428 
L 284.295868 52.82604 
L 286.292562 52.255653 
L 288.289256 51.685265 
L 290.28595 51.143488 
L 292.282645 50.644271 
L 294.279339 50.145054 
L 296.276033 49.645836 
L 298.272727 49.146619 
L 300.269421 48.647402 
L 302.266116 48.148185 
L 304.26281 47.648968 
L 306.259504 47.14975 
L 308.256198 46.650533 
L 310.252893 46.151316 
L 312.249587 45.652099 
L 314.246281 45.152881 
L 316.242975 44.653664 
L 318.239669 44.443636 
L 320.236364 44.443636 
" clip-path="url(#pcf96bb08cb)" style="fill: none; stroke: #ffb482; stroke-opacity: 0.8; stroke-width: 1.5; stroke-linecap: square"/>
   </g>
   <g id="line2d_3">
    <path d="M 122.563636 242.116364 
L 320.236364 44.443636 
" clip-path="url(#pcf96bb08cb)" style="fill: none; stroke-dasharray: 5.55,2.4; stroke-dashoffset: 0; stroke: #808080; stroke-width: 1.5"/>
   </g>
   <g id="patch_3">
    <path d="M 112.68 252 
L 112.68 34.56 
" style="fill: none; stroke: #000000; stroke-width: 0.8; stroke-linejoin: miter; stroke-linecap: square"/>
   </g>
   <g id="patch_4">
    <path d="M 330.12 252 
L 330.12 34.56 
" style="fill: none; stroke: #000000; stroke-width: 0.8; stroke-linejoin: miter; stroke-linecap: square"/>
   </g>
   <g id="patch_5">
    <path d="M 112.68 252 
L 330.12 252 
" style="fill: none; stroke: #000000; stroke-width: 0.8; stroke-linejoin: miter; stroke-linecap: square"/>
   </g>
   <g id="patch_6">
    <path d="M 112.68 34.56 
L 330.12 34.56 
" style="fill: none; stroke: #000000; stroke-width: 0.8; stroke-linejoin: miter; stroke-linecap: square"/>
   </g>
   <g id="text_1">
    <!-- ROC on Predicting Flu Positivity -->
    <g transform="translate(122.862188 28.56)scale(0.12 -0.12)">
     <defs>
      <path id="DejaVuSerif-52" d="M 3066 2316 
Q 3284 2256 3442 2114 
Q 3600 1972 3725 1716 
L 4403 331 
L 4972 331 
L 4972 0 
L 3872 0 
L 3144 1484 
Q 2934 1916 2759 2042 
Q 2584 2169 2278 2169 
L 1581 2169 
L 1581 331 
L 2241 331 
L 2241 0 
L 353 0 
L 353 331 
L 947 331 
L 947 4331 
L 353 4331 
L 353 4666 
L 2719 4666 
Q 3400 4666 3770 4341 
Q 4141 4016 4141 3419 
Q 4141 2938 3870 2661 
Q 3600 2384 3066 2316 
z
M 1581 2503 
L 2503 2503 
Q 2975 2503 3200 2726 
Q 3425 2950 3425 3419 
Q 3425 3888 3200 4109 
Q 2975 4331 2503 4331 
L 1581 4331 
L 1581 2503 
z
" transform="scale(0.015625)"/>
      <path id="DejaVuSerif-4f" d="M 2625 244 
Q 3391 244 3781 770 
Q 4172 1297 4172 2328 
Q 4172 3363 3781 3889 
Q 3391 4416 2625 4416 
Q 1856 4416 1465 3889 
Q 1075 3363 1075 2328 
Q 1075 1297 1465 770 
Q 1856 244 2625 244 
z
M 2625 -91 
Q 2150 -91 1751 65 
Q 1353 222 1050 525 
Q 700 875 529 1319 
Q 359 1763 359 2328 
Q 359 2894 529 3339 
Q 700 3784 1050 4134 
Q 1356 4441 1750 4595 
Q 2144 4750 2625 4750 
Q 3641 4750 4266 4084 
Q 4891 3419 4891 2328 
Q 4891 1769 4719 1320 
Q 4547 872 4197 525 
Q 3891 219 3497 64 
Q 3103 -91 2625 -91 
z
" transform="scale(0.015625)"/>
      <path id="DejaVuSerif-43" d="M 4513 1234 
Q 4306 581 3820 245 
Q 3334 -91 2591 -91 
Q 2134 -91 1743 65 
Q 1353 222 1050 525 
Q 700 875 529 1320 
Q 359 1766 359 2328 
Q 359 3416 987 4083 
Q 1616 4750 2644 4750 
Q 3025 4750 3456 4650 
Q 3888 4550 4384 4347 
L 4384 3272 
L 4031 3272 
Q 3916 3859 3567 4137 
Q 3219 4416 2591 4416 
Q 1844 4416 1459 3886 
Q 1075 3356 1075 2328 
Q 1075 1303 1459 773 
Q 1844 244 2591 244 
Q 3113 244 3450 492 
Q 3788 741 3938 1234 
L 4513 1234 
z
" transform="scale(0.015625)"/>
      <path id="DejaVuSerif-20" transform="scale(0.015625)"/>
      <path id="DejaVuSerif-6f" d="M 1925 219 
Q 2388 219 2623 584 
Q 2859 950 2859 1663 
Q 2859 2375 2623 2739 
Q 2388 3103 1925 3103 
Q 1463 3103 1227 2739 
Q 991 2375 991 1663 
Q 991 950 1228 584 
Q 1466 219 1925 219 
z
M 1925 -91 
Q 1200 -91 759 389 
Q 319 869 319 1663 
Q 319 2456 758 2934 
Q 1197 3413 1925 3413 
Q 2653 3413 3092 2934 
Q 3531 2456 3531 1663 
Q 3531 869 3092 389 
Q 2653 -91 1925 -91 
z
" transform="scale(0.015625)"/>
      <path id="DejaVuSerif-6e" d="M 263 0 
L 263 331 
L 781 331 
L 781 2988 
L 231 2988 
L 231 3322 
L 1356 3322 
L 1356 2731 
Q 1516 3069 1770 3241 
Q 2025 3413 2363 3413 
Q 2913 3413 3172 3097 
Q 3431 2781 3431 2113 
L 3431 331 
L 3944 331 
L 3944 0 
L 2356 0 
L 2356 331 
L 2853 331 
L 2853 1931 
Q 2853 2541 2703 2767 
Q 2553 2994 2175 2994 
Q 1775 2994 1565 2701 
Q 1356 2409 1356 1850 
L 1356 331 
L 1856 331 
L 1856 0 
L 263 0 
z
" transform="scale(0.015625)"/>
      <path id="DejaVuSerif-50" d="M 1581 2375 
L 2406 2375 
Q 2872 2375 3115 2626 
Q 3359 2878 3359 3353 
Q 3359 3831 3115 4081 
Q 2872 4331 2406 4331 
L 1581 4331 
L 1581 2375 
z
M 353 0 
L 353 331 
L 947 331 
L 947 4331 
L 353 4331 
L 353 4666 
L 2559 4666 
Q 3259 4666 3668 4311 
Q 4078 3956 4078 3353 
Q 4078 2753 3668 2397 
Q 3259 2041 2559 2041 
L 1581 2041 
L 1581 331 
L 2303 331 
L 2303 0 
L 353 0 
z
" transform="scale(0.015625)"/>
      <path id="DejaVuSerif-72" d="M 3059 3328 
L 3059 2497 
L 2728 2497 
Q 2713 2744 2591 2866 
Q 2469 2988 2234 2988 
Q 1809 2988 1582 2694 
Q 1356 2400 1356 1850 
L 1356 331 
L 2022 331 
L 2022 0 
L 263 0 
L 263 331 
L 781 331 
L 781 2994 
L 231 2994 
L 231 3322 
L 1356 3322 
L 1356 2731 
Q 1525 3078 1790 3245 
Q 2056 3413 2438 3413 
Q 2578 3413 2733 3391 
Q 2888 3369 3059 3328 
z
" transform="scale(0.015625)"/>
      <path id="DejaVuSerif-65" d="M 3469 1600 
L 991 1600 
L 991 1575 
Q 991 903 1244 561 
Q 1497 219 1991 219 
Q 2369 219 2611 417 
Q 2853 616 2950 1006 
L 3413 1006 
Q 3275 459 2904 184 
Q 2534 -91 1931 -91 
Q 1203 -91 761 389 
Q 319 869 319 1663 
Q 319 2450 753 2931 
Q 1188 3413 1894 3413 
Q 2647 3413 3050 2948 
Q 3453 2484 3469 1600 
z
M 2791 1931 
Q 2772 2513 2545 2808 
Q 2319 3103 1894 3103 
Q 1497 3103 1269 2806 
Q 1041 2509 991 1931 
L 2791 1931 
z
" transform="scale(0.015625)"/>
      <path id="DejaVuSerif-64" d="M 3359 331 
L 3909 331 
L 3909 0 
L 2784 0 
L 2784 519 
Q 2616 206 2355 57 
Q 2094 -91 1709 -91 
Q 1097 -91 708 395 
Q 319 881 319 1663 
Q 319 2444 706 2928 
Q 1094 3413 1709 3413 
Q 2094 3413 2355 3264 
Q 2616 3116 2784 2803 
L 2784 4531 
L 2241 4531 
L 2241 4863 
L 3359 4863 
L 3359 331 
z
M 2784 1497 
L 2784 1825 
Q 2784 2422 2554 2737 
Q 2325 3053 1888 3053 
Q 1444 3053 1217 2703 
Q 991 2353 991 1663 
Q 991 975 1217 622 
Q 1444 269 1888 269 
Q 2325 269 2554 583 
Q 2784 897 2784 1497 
z
" transform="scale(0.015625)"/>
      <path id="DejaVuSerif-69" d="M 622 4353 
Q 622 4497 726 4603 
Q 831 4709 978 4709 
Q 1122 4709 1226 4603 
Q 1331 4497 1331 4353 
Q 1331 4206 1228 4103 
Q 1125 4000 978 4000 
Q 831 4000 726 4103 
Q 622 4206 622 4353 
z
M 1356 331 
L 1900 331 
L 1900 0 
L 231 0 
L 231 331 
L 781 331 
L 781 2988 
L 231 2988 
L 231 3322 
L 1356 3322 
L 1356 331 
z
" transform="scale(0.015625)"/>
      <path id="DejaVuSerif-63" d="M 3291 997 
Q 3169 466 2822 187 
Q 2475 -91 1925 -91 
Q 1200 -91 759 389 
Q 319 869 319 1663 
Q 319 2459 759 2936 
Q 1200 3413 1925 3413 
Q 2241 3413 2553 3339 
Q 2866 3266 3181 3116 
L 3181 2266 
L 2847 2266 
Q 2781 2703 2561 2903 
Q 2341 3103 1931 3103 
Q 1466 3103 1228 2742 
Q 991 2381 991 1663 
Q 991 944 1227 581 
Q 1463 219 1931 219 
Q 2303 219 2525 412 
Q 2747 606 2828 997 
L 3291 997 
z
" transform="scale(0.015625)"/>
      <path id="DejaVuSerif-74" d="M 691 2988 
L 184 2988 
L 184 3322 
L 691 3322 
L 691 4353 
L 1269 4353 
L 1269 3322 
L 2350 3322 
L 2350 2988 
L 1269 2988 
L 1269 878 
Q 1269 456 1350 337 
Q 1431 219 1650 219 
Q 1875 219 1978 351 
Q 2081 484 2088 781 
L 2522 781 
Q 2497 328 2275 118 
Q 2053 -91 1600 -91 
Q 1103 -91 897 129 
Q 691 350 691 878 
L 691 2988 
z
" transform="scale(0.015625)"/>
      <path id="DejaVuSerif-67" d="M 3359 2988 
L 3359 72 
Q 3359 -644 2965 -1033 
Q 2572 -1422 1844 -1422 
Q 1516 -1422 1216 -1362 
Q 916 -1303 641 -1184 
L 641 -488 
L 941 -488 
Q 997 -813 1206 -963 
Q 1416 -1113 1806 -1113 
Q 2313 -1113 2548 -827 
Q 2784 -541 2784 72 
L 2784 519 
Q 2616 206 2355 57 
Q 2094 -91 1709 -91 
Q 1097 -91 708 395 
Q 319 881 319 1663 
Q 319 2444 706 2928 
Q 1094 3413 1709 3413 
Q 2094 3413 2355 3264 
Q 2616 3116 2784 2803 
L 2784 3322 
L 3909 3322 
L 3909 2988 
L 3359 2988 
z
M 2784 1825 
Q 2784 2422 2554 2737 
Q 2325 3053 1888 3053 
Q 1444 3053 1217 2703 
Q 991 2353 991 1663 
Q 991 975 1217 622 
Q 1444 269 1888 269 
Q 2325 269 2554 583 
Q 2784 897 2784 1497 
L 2784 1825 
z
" transform="scale(0.015625)"/>
      <path id="DejaVuSerif-46" d="M 353 0 
L 353 331 
L 947 331 
L 947 4331 
L 353 4331 
L 353 4666 
L 4172 4666 
L 4172 3628 
L 3788 3628 
L 3788 4281 
L 1581 4281 
L 1581 2719 
L 3175 2719 
L 3175 3303 
L 3559 3303 
L 3559 1753 
L 3175 1753 
L 3175 2338 
L 1581 2338 
L 1581 331 
L 2328 331 
L 2328 0 
L 353 0 
z
" transform="scale(0.015625)"/>
      <path id="DejaVuSerif-6c" d="M 1313 331 
L 1856 331 
L 1856 0 
L 184 0 
L 184 331 
L 738 331 
L 738 4531 
L 184 4531 
L 184 4863 
L 1313 4863 
L 1313 331 
z
" transform="scale(0.015625)"/>
      <path id="DejaVuSerif-75" d="M 2266 3322 
L 3341 3322 
L 3341 331 
L 3884 331 
L 3884 0 
L 2766 0 
L 2766 588 
Q 2606 256 2353 82 
Q 2100 -91 1766 -91 
Q 1213 -91 952 223 
Q 691 538 691 1209 
L 691 2988 
L 172 2988 
L 172 3322 
L 1269 3322 
L 1269 1388 
Q 1269 781 1417 556 
Q 1566 331 1947 331 
Q 2347 331 2556 625 
Q 2766 919 2766 1478 
L 2766 2988 
L 2266 2988 
L 2266 3322 
z
" transform="scale(0.015625)"/>
      <path id="DejaVuSerif-73" d="M 359 184 
L 359 959 
L 691 959 
Q 703 588 923 403 
Q 1144 219 1575 219 
Q 1963 219 2166 364 
Q 2369 509 2369 788 
Q 2369 1006 2220 1140 
Q 2072 1275 1594 1428 
L 1178 1569 
Q 750 1706 558 1912 
Q 366 2119 366 2438 
Q 366 2894 700 3153 
Q 1034 3413 1625 3413 
Q 1888 3413 2178 3344 
Q 2469 3275 2778 3144 
L 2778 2419 
L 2447 2419 
Q 2434 2741 2221 2922 
Q 2009 3103 1644 3103 
Q 1281 3103 1095 2975 
Q 909 2847 909 2591 
Q 909 2381 1050 2254 
Q 1191 2128 1613 1997 
L 2069 1856 
Q 2541 1709 2748 1489 
Q 2956 1269 2956 922 
Q 2956 450 2595 179 
Q 2234 -91 1600 -91 
Q 1278 -91 972 -22 
Q 666 47 359 184 
z
" transform="scale(0.015625)"/>
      <path id="DejaVuSerif-76" d="M 1581 0 
L 359 2988 
L -19 2988 
L -19 3322 
L 1509 3322 
L 1509 2988 
L 978 2988 
L 1913 703 
L 2847 2988 
L 2350 2988 
L 2350 3322 
L 3597 3322 
L 3597 2988 
L 3225 2988 
L 2003 0 
L 1581 0 
z
" transform="scale(0.015625)"/>
      <path id="DejaVuSerif-79" d="M 1381 -609 
L 1600 -56 
L 359 2988 
L -19 2988 
L -19 3322 
L 1509 3322 
L 1509 2988 
L 978 2988 
L 1913 703 
L 2847 2988 
L 2350 2988 
L 2350 3322 
L 3597 3322 
L 3597 2988 
L 3225 2988 
L 1703 -750 
Q 1547 -1138 1356 -1280 
Q 1166 -1422 819 -1422 
Q 672 -1422 517 -1397 
Q 363 -1372 206 -1325 
L 206 -691 
L 500 -691 
Q 519 -903 608 -995 
Q 697 -1088 884 -1088 
Q 1056 -1088 1161 -992 
Q 1266 -897 1381 -609 
z
" transform="scale(0.015625)"/>
     </defs>
     <use xlink:href="#DejaVuSerif-52"/>
     <use xlink:href="#DejaVuSerif-4f" x="75.292969"/>
     <use xlink:href="#DejaVuSerif-43" x="157.275391"/>
     <use xlink:href="#DejaVuSerif-20" x="233.789062"/>
     <use xlink:href="#DejaVuSerif-6f" x="265.576172"/>
     <use xlink:href="#DejaVuSerif-6e" x="325.78125"/>
     <use xlink:href="#DejaVuSerif-20" x="390.185547"/>
     <use xlink:href="#DejaVuSerif-50" x="421.972656"/>
     <use xlink:href="#DejaVuSerif-72" x="489.257812"/>
     <use xlink:href="#DejaVuSerif-65" x="537.060547"/>
     <use xlink:href="#DejaVuSerif-64" x="596.240234"/>
     <use xlink:href="#DejaVuSerif-69" x="660.253906"/>
     <use xlink:href="#DejaVuSerif-63" x="692.236328"/>
     <use xlink:href="#DejaVuSerif-74" x="748.242188"/>
     <use xlink:href="#DejaVuSerif-69" x="788.427734"/>
     <use xlink:href="#DejaVuSerif-6e" x="820.410156"/>
     <use xlink:href="#DejaVuSerif-67" x="884.814453"/>
     <use xlink:href="#DejaVuSerif-20" x="948.828125"/>
     <use xlink:href="#DejaVuSerif-46" x="980.615234"/>
     <use xlink:href="#DejaVuSerif-6c" x="1050"/>
     <use xlink:href="#DejaVuSerif-75" x="1081.982422"/>
     <use xlink:href="#DejaVuSerif-20" x="1146.386719"/>
     <use xlink:href="#DejaVuSerif-50" x="1178.173828"/>
     <use xlink:href="#DejaVuSerif-6f" x="1241.458984"/>
     <use xlink:href="#DejaVuSerif-73" x="1301.664062"/>
     <use xlink:href="#DejaVuSerif-69" x="1352.982422"/>
     <use xlink:href="#DejaVuSerif-74" x="1384.964844"/>
     <use xlink:href="#DejaVuSerif-69" x="1425.150391"/>
     <use xlink:href="#DejaVuSerif-76" x="1457.132812"/>
     <use xlink:href="#DejaVuSerif-69" x="1513.626953"/>
     <use xlink:href="#DejaVuSerif-74" x="1545.609375"/>
     <use xlink:href="#DejaVuSerif-79" x="1585.794922"/>
    </g>
   </g>
   <g id="legend_1">
    <g id="patch_7">
     <path d="M 236.745 247 
L 323.12 247 
Q 325.12 247 325.12 245 
L 325.12 216.64375 
Q 325.12 214.64375 323.12 214.64375 
L 236.745 214.64375 
Q 234.745 214.64375 234.745 216.64375 
L 234.745 245 
Q 234.745 247 236.745 247 
z
" style="fill: #ffffff; opacity: 0.8; stroke: #cccccc; stroke-linejoin: miter"/>
    </g>
    <g id="line2d_4">
     <path d="M 238.745 222.742188 
L 248.745 222.742188 
L 258.745 222.742188 
" style="fill: none; stroke: #a1c9f4; stroke-opacity: 0.8; stroke-width: 1.5; stroke-linecap: square"/>
    </g>
    <g id="text_2">
     <!-- Our Model -->
     <g transform="translate(266.745 226.242188)scale(0.1 -0.1)">
      <defs>
       <path id="DejaVuSerif-4d" d="M 353 0 
L 353 331 
L 947 331 
L 947 4331 
L 319 4331 
L 319 4666 
L 1678 4666 
L 3316 1344 
L 4953 4666 
L 6228 4666 
L 6228 4331 
L 5606 4331 
L 5606 331 
L 6203 331 
L 6203 0 
L 4378 0 
L 4378 331 
L 4972 331 
L 4972 3938 
L 3372 684 
L 2931 684 
L 1331 3938 
L 1331 331 
L 1925 331 
L 1925 0 
L 353 0 
z
" transform="scale(0.015625)"/>
      </defs>
      <use xlink:href="#DejaVuSerif-4f"/>
      <use xlink:href="#DejaVuSerif-75" x="81.982422"/>
      <use xlink:href="#DejaVuSerif-72" x="146.386719"/>
      <use xlink:href="#DejaVuSerif-20" x="194.189453"/>
      <use xlink:href="#DejaVuSerif-4d" x="225.976562"/>
      <use xlink:href="#DejaVuSerif-6f" x="328.369141"/>
      <use xlink:href="#DejaVuSerif-64" x="388.574219"/>
      <use xlink:href="#DejaVuSerif-65" x="452.587891"/>
      <use xlink:href="#DejaVuSerif-6c" x="511.767578"/>
     </g>
    </g>
    <g id="line2d_5">
     <path d="M 238.745 237.420312 
L 248.745 237.420312 
L 258.745 237.420312 
" style="fill: none; stroke: #ffb482; stroke-opacity: 0.8; stroke-width: 1.5; stroke-linecap: square"/>
    </g>
    <g id="text_3">
     <!-- XGBoost -->
     <g transform="translate(266.745 240.920312)scale(0.1 -0.1)">
      <defs>
       <path id="DejaVuSerif-58" d="M 2119 1997 
L 978 331 
L 1581 331 
L 1581 0 
L 38 0 
L 38 331 
L 575 331 
L 1919 2291 
L 556 4331 
L 56 4331 
L 56 4666 
L 1906 4666 
L 1906 4331 
L 1356 4331 
L 2356 2828 
L 3384 4331 
L 2784 4331 
L 2784 4666 
L 4313 4666 
L 4313 4331 
L 3788 4331 
L 2553 2534 
L 4025 331 
L 4525 331 
L 4525 0 
L 2675 0 
L 2675 331 
L 3231 331 
L 2119 1997 
z
" transform="scale(0.015625)"/>
       <path id="DejaVuSerif-47" d="M 4097 3272 
Q 3988 3856 3641 4136 
Q 3294 4416 2675 4416 
Q 1869 4416 1472 3897 
Q 1075 3378 1075 2328 
Q 1075 1300 1484 772 
Q 1894 244 2688 244 
Q 3041 244 3362 331 
Q 3684 419 3975 594 
L 3975 1797 
L 3097 1797 
L 3097 2131 
L 4609 2131 
L 4609 391 
Q 4194 150 3714 29 
Q 3234 -91 2688 -91 
Q 1631 -91 995 570 
Q 359 1231 359 2328 
Q 359 3434 996 4092 
Q 1634 4750 2713 4750 
Q 3113 4750 3539 4658 
Q 3966 4566 4447 4378 
L 4447 3272 
L 4097 3272 
z
" transform="scale(0.015625)"/>
       <path id="DejaVuSerif-42" d="M 1581 331 
L 2516 331 
Q 3078 331 3337 575 
Q 3597 819 3597 1350 
Q 3597 1878 3339 2120 
Q 3081 2363 2516 2363 
L 1581 2363 
L 1581 331 
z
M 1581 2694 
L 2375 2694 
Q 2888 2694 3123 2891 
Q 3359 3088 3359 3513 
Q 3359 3941 3123 4136 
Q 2888 4331 2375 4331 
L 1581 4331 
L 1581 2694 
z
M 353 0 
L 353 331 
L 947 331 
L 947 4331 
L 353 4331 
L 353 4666 
L 2656 4666 
Q 3363 4666 3720 4377 
Q 4078 4088 4078 3513 
Q 4078 3097 3829 2850 
Q 3581 2603 3103 2547 
Q 3697 2472 4005 2167 
Q 4313 1863 4313 1350 
Q 4313 656 3875 328 
Q 3438 0 2509 0 
L 353 0 
z
" transform="scale(0.015625)"/>
      </defs>
      <use xlink:href="#DejaVuSerif-58"/>
      <use xlink:href="#DejaVuSerif-47" x="71.191406"/>
      <use xlink:href="#DejaVuSerif-42" x="151.074219"/>
      <use xlink:href="#DejaVuSerif-6f" x="224.560547"/>
      <use xlink:href="#DejaVuSerif-6f" x="284.765625"/>
      <use xlink:href="#DejaVuSerif-73" x="344.970703"/>
      <use xlink:href="#DejaVuSerif-74" x="396.289062"/>
     </g>
    </g>
   </g>
  </g>
 </g>
 <defs>
  <clipPath id="pcf96bb08cb">
   <rect x="112.68" y="34.56" width="217.44" height="217.44"/>
  </clipPath>
 </defs>
</svg>
